<svg xmlns="http://www.w3.org/2000/svg" xmlns:xlink="http://www.w3.org/1999/xlink" version="1.1" x="0px" y="0px"
     viewBox="0 0 100 125" enable-background="new 0 0 100 100" xml:space="preserve" fill='#A5635EFF'><path d="M40.795,70.59c-11.353,0-20.588-9.236-20.588-20.589c0-11.353,9.236-20.589,20.588-20.589  c11.353,0,20.589,9.236,20.589,20.589C61.385,61.354,52.148,70.59,40.795,70.59z M40.795,30.412  c-10.801,0-19.588,8.788-19.588,19.589c0,10.802,8.787,19.589,19.588,19.589c10.802,0,19.589-8.787,19.589-19.589  C60.385,39.199,51.598,30.412,40.795,30.412z"/>
    <circle cx="40.796" cy="50" r="8.938" />
    <path d="M85.496,21.239H14.504c-1.657,0-3,1.343-3,3v51.523c0,1.656,1.343,3,3,3h70.992c1.657,0,3-1.344,3-3V24.239  C88.496,22.582,87.153,21.239,85.496,21.239z M17.61,24.16c1.71,0,3.097,1.387,3.097,3.098c0,1.71-1.387,3.097-3.097,3.097  c-1.711,0-3.098-1.387-3.098-3.097C14.512,25.546,15.899,24.16,17.61,24.16z M17.61,76.285c-1.711,0-3.098-1.387-3.098-3.098  s1.387-3.098,3.098-3.098c1.71,0,3.097,1.387,3.097,3.098S19.32,76.285,17.61,76.285z M40.796,72.744  c-12.561,0-22.743-10.184-22.743-22.745c0-12.56,10.183-22.743,22.743-22.743c12.562,0,22.743,10.183,22.743,22.743  C63.539,62.561,53.357,72.744,40.796,72.744z M74.651,74.436c-0.935,0-1.692-0.758-1.692-1.691c0-0.936,0.758-1.693,1.692-1.693  s1.692,0.758,1.692,1.693C76.344,73.678,75.586,74.436,74.651,74.436z M73.143,66.406l0.362,0.348l-1.919,2.002  c0.222,1.059-0.064,2.207-0.87,3.047l-1.327,1.383c-1.299,1.355-3.45,1.398-4.805,0.102c-1.354-1.297-1.398-3.451-0.101-4.803  l1.327-1.385c0.807-0.842,1.94-1.176,3.009-0.998l1.918-2l0.24,0.23c3.595-3.84,2.815-9.113,1.91-15.172  c-0.522-3.502-1.053-7.084-0.778-10.641c-2.338-1.054-3.969-3.399-3.969-6.13c0-3.714,3.012-6.726,6.727-6.726  c3.714,0,6.725,3.011,6.725,6.726c0,3.642-2.896,6.6-6.509,6.715c-0.188,3.149,0.295,6.416,0.772,9.612  C76.796,55.018,77.757,61.52,73.143,66.406z M79.526,74.436c-0.935,0-1.692-0.758-1.692-1.691c0-0.936,0.758-1.693,1.692-1.693  s1.692,0.758,1.692,1.693C81.219,73.678,80.461,74.436,79.526,74.436z M84.276,74.436c-0.935,0-1.692-0.758-1.692-1.691  c0-0.936,0.758-1.693,1.692-1.693s1.692,0.758,1.692,1.693C85.969,73.678,85.211,74.436,84.276,74.436z M84.94,53.8h-0.559v12.157  c0,0.644-0.522,1.166-1.166,1.166c-0.645,0-1.167-0.522-1.167-1.166V53.8H81.49c-0.995,0-1.804-0.658-1.804-1.47  c0-0.813,0.809-1.471,1.804-1.471h0.559v-5.112c0-0.644,0.522-1.167,1.167-1.167c0.644,0,1.166,0.522,1.166,1.167v5.112h0.559  c0.997,0,1.804,0.658,1.804,1.471C86.744,53.142,85.938,53.8,84.94,53.8z"/>
    <path d="M84.94,54.3h-3.45c-1.271,0-2.304-0.884-2.304-1.97c0-1.087,1.033-1.971,2.304-1.971h3.45c1.271,0,2.304,0.884,2.304,1.971  C87.244,53.416,86.211,54.3,84.94,54.3z M81.49,51.359c-0.707,0-1.304,0.444-1.304,0.971c0,0.525,0.597,0.97,1.304,0.97h3.45  c0.707,0,1.304-0.444,1.304-0.97c0-0.526-0.597-0.971-1.304-0.971H81.49z"/>
</svg>