<svg width="256" height="256" viewBox="0 0 256 256" fill="none" xmlns="http://www.w3.org/2000/svg">
<g clip-path="url(#clip0_8_53)">
<path d="M115.796 99.6804C123.373 102.297 130.346 106.877 136.193 113.079C140.682 117.515 145.629 121.28 150.918 124.287C151.9 108.457 149.61 92.5828 144.24 78H106.62C110.527 84.6946 113.615 91.9915 115.796 99.6804Z" fill="#E95E5E"/>
<path d="M150.295 130.781C143.993 127.518 138.128 123.21 132.883 117.99C128.309 113.37 123.13 109.635 117.544 106.925C119.199 115.209 119.715 123.747 119.071 132.22C123.048 134.861 126.815 137.91 130.328 141.33C134.957 145.765 139.895 149.741 145.091 153.217C147.594 146.01 149.341 138.477 150.295 130.781Z" fill="#E95E5E"/>
<path d="M127.016 146.243C124.261 143.608 121.374 141.167 118.369 138.933C116.218 153.237 111.005 166.674 103.214 178H132.684C136.694 172.118 140.128 165.733 142.924 158.963C137.313 155.273 131.991 151.017 127.016 146.243Z" fill="#E95E5E"/>
<path d="M108.49 127.949C110.313 128.323 112.107 128.866 113.856 129.574C114.284 121.297 113.521 112.994 111.598 105.011C101.816 103.169 90.5418 106.356 78 114.511V135.321C87.1571 128.914 97.9044 126.316 108.49 127.949Z" fill="#E95E5E"/>
<path d="M178 134.449C175.323 134.912 172.622 135.158 169.915 135.186C165.026 135.204 160.158 134.428 155.451 132.88C154.379 140.842 152.506 148.629 149.873 156.08C158.749 160.849 168.265 163.791 178 164.774V134.449Z" fill="#E95E5E"/>
<path d="M113.317 135.978C111.465 135.128 109.544 134.502 107.583 134.11C98.6282 132.306 88.6757 135.16 78 142.5V173.833C78 174.938 78.3763 175.998 79.046 176.78C79.7158 177.561 80.6242 178 81.5714 178H96.2104C105.338 166.265 111.289 151.646 113.317 135.978Z" fill="#E95E5E"/>
<path d="M147.699 161.785C145.344 167.464 142.564 172.89 139.393 178H174.429C175.376 178 176.284 177.561 176.954 176.78C177.624 175.998 178 174.938 178 173.833V171.051C167.513 170.049 157.258 166.913 147.699 161.785Z" fill="#E95E5E"/>
<path d="M109.766 98.5021C107.388 91.1558 104.111 84.2501 100.036 78H81.5714C80.6242 78 79.7158 78.439 79.046 79.2204C78.3763 80.0018 78 81.0616 78 82.1667V107.427C87.639 100.969 98.6636 97.8714 109.766 98.5021Z" fill="#E95E5E"/>
<path d="M156.12 126.583C163.217 129.039 170.7 129.574 178 128.146V82.1667C178 81.0616 177.624 80.0018 176.954 79.2204C176.284 78.439 175.376 78 174.429 78H150.049C155.321 93.4116 157.401 110.057 156.12 126.583Z" fill="#E95E5E"/>
</g>
<defs>
<clipPath id="clip0_8_53">
<rect width="100" height="100" fill="white" transform="translate(78 78)"/>
</clipPath>
</defs>
</svg>
