<svg width="100" height="100" viewBox="0 0 100 100" fill="none" xmlns="http://www.w3.org/2000/svg">
<path d="M0 9.44363L8.10811 17.5695L0 25.6955L8.10811 33.7848L0 41.8741L8.10811 50L0 58.1259L8.10811 66.2152L0 74.3045L8.10811 82.4305L0 90.5564L9.45946 100L17.5676 91.9107L25.6757 100L33.7838 91.9107L41.8919 100L50 91.9107L58.1081 100L66.2162 91.9107L74.3243 100L82.4324 91.9107L90.5405 100L100 90.5564L91.8919 82.4305L100 74.3411L91.8919 66.2152L100 58.1259L91.8919 50L100 41.9107L91.8919 33.7848L100 25.6955L91.8919 17.5695L100 9.48023L90.5405 0L82.4324 8.08931L74.3243 0L66.2162 8.08931L58.1081 0L50 8.08931L41.8919 0L33.7838 8.08931L25.6757 0L17.5676 8.08931L9.45946 0L0 9.44363ZM9.45946 2.70864L16.2162 9.44363L9.45946 16.2152L2.7027 9.44363L9.45946 2.70864ZM25.6757 2.70864L32.4324 9.44363L25.6757 16.2152L18.9189 9.44363L25.6757 2.70864ZM41.8919 2.70864L48.6486 9.44363L41.8919 16.2152L35.1351 9.44363L41.8919 2.70864ZM58.1081 2.70864L64.8649 9.44363L58.1081 16.2152L51.3514 9.44363L58.1081 2.70864ZM74.3243 2.70864L81.0811 9.44363L74.3243 16.2152L67.5676 9.44363L74.3243 2.70864ZM90.5405 2.70864L97.2973 9.48023L90.5405 16.2152L83.7838 9.44363L90.5405 2.70864ZM17.5676 10.798L24.3243 17.5695L17.5676 24.3045L10.8108 17.5695L17.5676 10.798ZM33.7838 10.798L40.5405 17.5695L33.7838 24.3045L27.027 17.5695L33.7838 10.798ZM50 10.798L56.7568 17.5695L50 24.3045L43.2432 17.5695L50 10.798ZM66.2162 10.798L72.973 17.5695L66.2162 24.3045L59.4595 17.5695L66.2162 10.798ZM82.4324 10.798L89.1892 17.5695L82.4324 24.3411L75.6757 17.5695L82.4324 10.798ZM9.45946 18.9239L16.2162 25.6589L9.45946 32.4305L2.7027 25.6589L9.45946 18.9239ZM25.6757 18.9239L32.4324 25.6589L25.6757 32.4305L18.9189 25.6589L25.6757 18.9239ZM41.8919 18.9239L48.6486 25.6589L41.8919 32.4305L35.1351 25.6589L41.8919 18.9239ZM58.1081 18.9239L64.8649 25.6589L58.1081 32.4305L51.3514 25.6589L58.1081 18.9239ZM74.3243 18.9239L81.0811 25.6955L74.3243 32.4305L67.5676 25.6589L74.3243 18.9239ZM90.5405 18.9239L97.2973 25.6955L90.5405 32.4305L83.7838 25.6955L90.5405 18.9239ZM17.5676 27.0132L24.3243 33.7848L17.5676 40.5198L10.8108 33.7848L17.5676 27.0132ZM33.7838 27.0132L40.5405 33.7848L33.7838 40.5198L27.027 33.7848L33.7838 27.0132ZM50 27.0132L56.7568 33.7848L50 40.5198L43.2432 33.7848L50 27.0132ZM66.2162 27.0132L72.973 33.7848L66.2162 40.5564L59.4595 33.7848L66.2162 27.0132ZM82.4324 27.0498L89.1892 33.7848L82.4324 40.5564L75.6757 33.7848L82.4324 27.0498ZM9.45946 35.1391L16.2162 41.8741L9.45946 48.6457L2.7027 41.8741L9.45946 35.1391ZM25.6757 35.1391L32.4324 41.8741L25.6757 48.6457L18.9189 41.8741L25.6757 35.1391ZM41.8919 35.1391L48.6486 41.8741L41.8919 48.6457L35.1351 41.8741L41.8919 35.1391ZM58.1081 35.1391L64.8649 41.9107L58.1081 48.6457L51.3514 41.8741L58.1081 35.1391ZM74.3243 35.1391L81.0811 41.9107L74.3243 48.6457L67.5676 41.9107L74.3243 35.1391ZM90.5405 35.1391L97.2973 41.9107L90.5405 48.6457L83.7838 41.9107L90.5405 35.1391ZM17.5676 43.2284L24.3243 50L17.5676 56.735L10.8108 50L17.5676 43.2284ZM33.7838 43.2284L40.5405 50L33.7838 56.735L27.027 50L33.7838 43.2284ZM50 43.2284L56.7568 50L50 56.7716L43.2432 50L50 43.2284ZM66.2162 43.265L72.973 50L66.2162 56.7716L59.4595 50L66.2162 43.265ZM82.4324 43.265L89.1892 50L82.4324 56.7716L75.6757 50L82.4324 43.265ZM9.45946 51.3543L16.2162 58.0893L9.45946 64.8609L2.7027 58.1259L9.45946 51.3543ZM25.6757 51.3543L32.4324 58.0893L25.6757 64.8609L18.9189 58.0893L25.6757 51.3543ZM41.8919 51.3543L48.6486 58.1259L41.8919 64.8609L35.1351 58.0893L41.8919 51.3543ZM58.1081 51.3543L64.8649 58.1259L58.1081 64.8609L51.3514 58.1259L58.1081 51.3543ZM74.3243 51.3543L81.0811 58.1259L74.3243 64.8609L67.5676 58.1259L74.3243 51.3543ZM90.5405 51.3543L97.2973 58.1259L90.5405 64.8609L83.7838 58.1259L90.5405 51.3543ZM17.5676 59.4436L24.3243 66.2152L17.5676 72.9502L10.8108 66.2152L17.5676 59.4436ZM33.7838 59.4436L40.5405 66.2152L33.7838 72.9868L27.027 66.2152L33.7838 59.4436ZM50 59.4802L56.7568 66.2152L50 72.9868L43.2432 66.2152L50 59.4802ZM66.2162 59.4802L72.973 66.2152L66.2162 72.9868L59.4595 66.2152L66.2162 59.4802ZM82.4324 59.4802L89.1892 66.2152L82.4324 72.9868L75.6757 66.2152L82.4324 59.4802ZM9.45946 67.5695L16.2162 74.3045L9.45946 81.0761L2.7027 74.3411L9.45946 67.5695ZM25.6757 67.5695L32.4324 74.3411L25.6757 81.0761L18.9189 74.3045L25.6757 67.5695ZM41.8919 67.5695L48.6486 74.3411L41.8919 81.0761L35.1351 74.3411L41.8919 67.5695ZM58.1081 67.5695L64.8649 74.3411L58.1081 81.0761L51.3514 74.3411L58.1081 67.5695ZM74.3243 67.5695L81.0811 74.3411L74.3243 81.0761L67.5676 74.3411L74.3243 67.5695ZM90.5405 67.5695L97.2973 74.3411L90.5405 81.0761L83.7838 74.3411L90.5405 67.5695ZM17.5676 75.6589L24.3243 82.4305L17.5676 89.2021L10.8108 82.4305L17.5676 75.6589ZM33.7838 75.6955L40.5405 82.4305L33.7838 89.2021L27.027 82.4305L33.7838 75.6955ZM50 75.6955L56.7568 82.4305L50 89.2021L43.2432 82.4305L50 75.6955ZM66.2162 75.6955L72.973 82.4305L66.2162 89.2021L59.4595 82.4305L66.2162 75.6955ZM82.4324 75.6955L89.1892 82.4305L82.4324 89.2021L75.6757 82.4305L82.4324 75.6955ZM9.45946 83.7848L16.2162 90.5564L9.45946 97.2914L2.7027 90.5564L9.45946 83.7848ZM25.6757 83.7848L32.4324 90.5564L25.6757 97.2914L18.9189 90.5564L25.6757 83.7848ZM41.8919 83.7848L48.6486 90.5564L41.8919 97.2914L35.1351 90.5564L41.8919 83.7848ZM58.1081 83.7848L64.8649 90.5564L58.1081 97.2914L51.3514 90.5564L58.1081 83.7848ZM74.3243 83.7848L81.0811 90.5564L74.3243 97.2914L67.5676 90.5564L74.3243 83.7848ZM90.5405 83.7848L97.2973 90.5564L90.5405 97.2914L83.7838 90.5564L90.5405 83.7848Z" fill="url(#paint0_linear_13_52)"/>
<defs>
<linearGradient id="paint0_linear_13_52" x1="8.5" y1="100" x2="100" y2="9.5" gradientUnits="userSpaceOnUse">
<stop stop-color="#395EE3"/>
<stop offset="1" stop-color="#F78153"/>
</linearGradient>
</defs>
</svg>
