<svg width="257" height="256" viewBox="0 0 257 256" fill="none" xmlns="http://www.w3.org/2000/svg">
<path d="M153.189 127.415L150.352 123.777L130.078 97.8349L128.653 96L127.241 97.8191L106.98 123.745L104.143 127.383L78.6527 160H178.653L153.189 127.415ZM149.829 128.095L130.065 153.894V102.818L149.829 128.095ZM127.241 102.786V153.894L107.502 128.095L127.241 102.786ZM85.2541 156.567L104.143 132.397V156.567H85.241H85.2541ZM106.98 132.461L125.424 156.567H106.966V132.461H106.98ZM131.908 156.567L150.352 132.445V156.567H131.895H131.908ZM153.189 132.397L172.078 156.567H153.189V132.382V132.397Z" fill="url(#paint0_linear_7_6)"/>
<defs>
<linearGradient id="paint0_linear_7_6" x1="85.1527" y1="160" x2="128.153" y2="128" gradientUnits="userSpaceOnUse">
<stop stop-color="#BAE7B5"/>
<stop offset="1" stop-color="#274DAD"/>
</linearGradient>
</defs>
</svg>
