<svg width="100" height="100" viewBox="0 0 100 100" fill="none" xmlns="http://www.w3.org/2000/svg">
<path d="M74.536 49.4147L71.6994 45.7766L51.4248 19.8349L50 18L48.5882 19.8191L28.3268 45.7449L25.4902 49.3831L0 82H100L74.536 49.4147ZM71.1765 50.0949L51.4118 75.8942V24.8176L71.1765 50.0949ZM48.5882 24.786V75.8942L28.8497 50.0949L48.5882 24.786ZM6.60131 78.5675L25.4902 54.3974V78.5675H6.58823H6.60131ZM28.3268 54.4607L46.7712 78.5675H28.3137V54.4607H28.3268ZM53.2549 78.5675L71.6994 54.4449V78.5675H53.2418H53.2549ZM74.536 54.3974L93.4248 78.5675H74.536V54.3816V54.3974Z" fill="url(#paint0_linear_13_52)"/>
<defs>
<linearGradient id="paint0_linear_13_52" x1="6.5" y1="82" x2="49.5" y2="50" gradientUnits="userSpaceOnUse">
<stop stop-color="#BAE7B5"/>
<stop offset="1" stop-color="#274DAD"/>
</linearGradient>
</defs>
</svg>
