<svg width="100" height="100" viewBox="0 0 100 100" fill="none" xmlns="http://www.w3.org/2000/svg">
<path d="M34.2222 0C15.3333 0 0 15.3333 0 34.2222C0 53.1111 15.3333 68.4444 34.2222 68.4444C50.2222 68.4444 63.6667 57.4444 67.3333 42.6667C66.7778 42.6667 66.3333 42.5556 65.7778 42.5556C64.4444 42.5556 63.1111 42.6667 61.7778 42.8889C58.1111 54.6667 47.1111 63.1111 34.1111 63.1111C18.1111 63.1111 5.11111 50.1111 5.11111 34.1111C5.11111 18.1111 18.2222 5.22222 34.2222 5.22222C47.6667 5.22222 59 14.4444 62.2222 26.8889C63.4444 26.7778 64.5555 26.6667 65.7778 26.6667C66.3333 26.6667 67 26.6667 67.5555 26.6667C64.2222 11.4444 50.4444 0 34.2222 0Z" fill="url(#paint0_linear_47_3)"/>
<path d="M64.8889 100C83.7778 100 99.1111 84.6667 99.1111 65.7778C99.1111 46.8889 83.7778 31.5555 64.8889 31.5555C48.8889 31.5555 35.4444 42.5555 31.7778 57.3333C32.3333 57.3333 32.7778 57.4444 33.3333 57.4444C34.6667 57.4444 36 57.3333 37.3333 57.1111C41 45.3333 52 36.8889 65 36.8889C81 36.8889 94 49.8889 94 65.8889C94 81.8889 80.8889 94.7778 64.8889 94.7778C51.4444 94.7778 40.1111 85.5555 36.8889 73.1111C35.6667 73.2222 34.5555 73.3333 33.3333 73.3333C32.7778 73.3333 32.1111 73.3333 31.5555 73.3333C34.8889 88.5555 48.6667 100 64.8889 100Z" fill="url(#paint1_linear_47_3)"/>
<defs>
<linearGradient id="paint0_linear_47_3" x1="33.7778" y1="0" x2="33.7778" y2="68.4444" gradientUnits="userSpaceOnUse">
<stop stop-color="#776BFF"/>
<stop offset="1" stop-color="#AFA8FF"/>
</linearGradient>
<linearGradient id="paint1_linear_47_3" x1="65.3333" y1="31.5555" x2="65.3333" y2="100" gradientUnits="userSpaceOnUse">
<stop stop-color="#AFA8FF"/>
<stop offset="1" stop-color="#776BFF"/>
</linearGradient>
</defs>
</svg>
