<svg width="104" height="104" viewBox="0 0 104 104" fill="none" xmlns="http://www.w3.org/2000/svg">
<rect x="2" y="2" width="100" height="100" rx="16" stroke="url(#paint0_linear_67_2)" stroke-width="3"/>
<path d="M70.0469 25.6562C69.7969 25.5312 69.4219 26.25 68.9219 27.8125C68.4844 29.3125 67.8906 31.2812 67.1406 33.7188C66.3906 36.0938 65.5781 38.8125 64.7031 41.875C63.8906 44.875 62.9844 47.875 61.9844 50.875C60.9844 53.875 59.9844 56.6875 58.9844 59.3125C57.9844 61.875 56.9844 63.9062 55.9844 65.4062C54.9844 66.9062 54.0469 67.75 53.1719 67.9375C52.2969 68.0625 51.5156 67.1562 50.8281 65.2188C50.3281 64.3438 49.6094 62.9688 48.6719 61.0938C47.7969 59.1562 46.7656 57 45.5781 54.625C44.3906 52.25 43.1406 49.75 41.8281 47.125C40.5156 44.5 39.2656 42.0312 38.0781 39.7188C36.9531 37.3438 35.8906 35.2188 34.8906 33.3438C33.9531 31.4688 33.2656 30.0938 32.8281 29.2188C32.0781 27.8438 31.3906 26.75 30.7656 25.9375C30.2031 25.0625 29.2969 24.625 28.0469 24.625C28.0469 29 28.2969 33.8125 28.7969 39.0625C29.2969 44.3125 29.8281 49.625 30.3906 55C31.0156 60.375 31.5781 65.6875 32.0781 70.9375C32.5781 76.125 32.8281 80.9375 32.8281 85.375C33.0781 85.9375 32.9844 86.4688 32.5469 86.9688C32.1719 87.4688 31.6094 87.8438 30.8594 88.0938C30.1719 88.3438 29.3906 88.3438 28.5156 88.0938C27.7031 87.9062 27.0156 87.4062 26.4531 86.5938C25.8906 81.0312 25.5781 75.375 25.5156 69.625C25.5156 63.8125 25.4844 58 25.4219 52.1875C25.3594 46.375 25.1094 40.5625 24.6719 34.75C24.2344 28.875 23.3594 23.0312 22.0469 17.2188C21.9844 16.0938 22.1719 15.4062 22.6094 15.1562C23.0469 14.8438 23.6094 14.6875 24.2969 14.6875C25.7969 14.6875 27.1406 15.0625 28.3281 15.8125C29.5781 16.5 30.7031 17.4062 31.7031 18.5312C32.7031 19.5938 33.5781 20.7812 34.3281 22.0938C35.1406 23.4062 35.8594 24.5938 36.4844 25.6562C36.9844 26.4688 37.6719 27.75 38.5469 29.5L41.5469 35.5938C42.6719 37.8438 43.8281 40.2188 45.0156 42.7188C46.2656 45.1562 47.4531 47.5 48.5781 49.75C49.7031 51.9375 50.7344 53.9062 51.6719 55.6562C52.6094 57.3438 53.3281 58.5625 53.8281 59.3125C54.0781 59.3125 54.2969 59.2188 54.4844 59.0312C54.6719 58.8438 54.9219 58.3125 55.2344 57.4375C55.6094 56.5625 56.0781 55.2188 56.6406 53.4062C57.2656 51.5938 58.1094 49.0938 59.1719 45.9062C60.2344 42.7188 61.5469 38.6875 63.1094 33.8125C64.6719 28.9375 66.5781 23 68.8281 16C68.9531 15.6875 69.3594 15.4062 70.0469 15.1562C70.7344 14.9062 71.3594 14.7812 71.9219 14.7812C72.4844 14.7812 72.8594 14.9688 73.0469 15.3438C73.2969 15.7188 73.4844 16.3438 73.6094 17.2188C74.1719 22.5312 74.6094 28.0938 74.9219 33.9062C75.2969 39.6562 75.7656 45.5 76.3281 51.4375C76.8906 57.3125 77.5781 63.1562 78.3906 68.9688C79.2656 74.7812 80.4531 80.3125 81.9531 85.5625L75.4844 88.0938L70.0469 25.6562Z" fill="url(#paint1_linear_67_2)"/>
<defs>
<linearGradient id="paint0_linear_67_2" x1="8" y1="8" x2="94" y2="102" gradientUnits="userSpaceOnUse">
<stop stop-color="#FCA5A5"/>
<stop offset="1" stop-color="#B91C1C"/>
</linearGradient>
<linearGradient id="paint1_linear_67_2" x1="94" y1="98" x2="-8.36634" y2="64.264" gradientUnits="userSpaceOnUse">
<stop stop-color="#B91C1C"/>
<stop offset="0.69" stop-color="#FCA5A5"/>
<stop offset="1" stop-color="#B91C1C"/>
</linearGradient>
</defs>
</svg>
