<svg width="104" height="104" viewBox="0 0 104 104" fill="none" xmlns="http://www.w3.org/2000/svg">
<rect x="2" y="2" width="100" height="100" rx="16" stroke="url(#paint0_linear_47_3)" stroke-width="3"/>
<path d="M40.8251 17.1906C27.6749 17.1906 17 27.8655 17 41.0157C17 54.1659 27.6749 64.8408 40.8251 64.8408C51.9641 64.8408 61.324 57.1827 63.8767 46.8946C63.4899 46.8946 63.1805 46.8173 62.7937 46.8173C61.8655 46.8173 60.9372 46.8946 60.009 47.0493C57.4563 55.2489 49.7982 61.1278 40.7478 61.1278C29.6087 61.1278 20.5583 52.0774 20.5583 40.9383C20.5583 29.7993 29.6861 20.8262 40.8251 20.8262C50.185 20.8262 58.0751 27.2466 60.3184 35.9103C61.1693 35.833 61.9428 35.7556 62.7937 35.7556C63.1805 35.7556 63.6446 35.7556 64.0314 35.7556C61.7108 25.1581 52.1188 17.1906 40.8251 17.1906Z" fill="#ADB9FF"/>
<path d="M62.1749 86.8094C75.3251 86.8094 86 76.1345 86 62.9843C86 49.8341 75.3251 39.1592 62.1749 39.1592C51.0359 39.1592 41.676 46.8172 39.1233 57.1054C39.5101 57.1054 39.8195 57.1827 40.2063 57.1827C41.1345 57.1827 42.0628 57.1054 42.991 56.9507C45.5437 48.7511 53.2018 42.8722 62.2522 42.8722C73.3913 42.8722 82.4417 51.9226 82.4417 63.0617C82.4417 74.2007 73.3139 83.1738 62.1749 83.1738C52.815 83.1738 44.9249 76.7534 42.6816 68.0897C41.8307 68.167 41.0572 68.2444 40.2063 68.2444C39.8195 68.2444 39.3554 68.2444 38.9686 68.2444C41.2892 78.8419 50.8812 86.8094 62.1749 86.8094Z" fill="#7998FF"/>
<defs>
<linearGradient id="paint0_linear_47_3" x1="95" y1="98" x2="10" y2="7" gradientUnits="userSpaceOnUse">
<stop stop-color="#7998FF"/>
<stop offset="1" stop-color="#ADB9FF"/>
</linearGradient>
</defs>
</svg>
