<svg width="100" height="100" viewBox="0 0 100 100" fill="none" xmlns="http://www.w3.org/2000/svg">
<path d="M38.7015 8.85312C38.5265 8.91475 38.3595 8.99101 38.1855 9.05473C38.3955 8.98369 38.6025 8.90639 38.8135 8.83849C38.7765 8.84372 38.7395 8.84789 38.7015 8.85312Z" fill="url(#paint0_linear_67_2)"/>
<path d="M77.9645 81.7161C80.7315 78.9082 83.1275 75.7137 85.3105 72.2947C87.0595 69.0971 88.2645 65.7575 89.0565 62.3218C88.4235 64.1822 87.6585 66.0364 86.7225 67.8676C84.1285 72.3835 81.5295 77.4478 77.9645 81.7161Z" fill="url(#paint1_linear_67_2)"/>
<path d="M61.1355 91.5052C61.1545 91.5 61.1705 91.4926 61.1895 91.4864C54.7725 92.32 48.3575 92.6678 42.2035 91.7277C40.0435 91.2869 37.9405 90.6873 35.8955 89.9414C36.7155 90.3143 37.5385 90.6559 38.3635 90.962C35.0735 90.1347 31.8775 88.8749 28.8165 87.0478C27.7705 86.3197 26.7455 85.5666 25.7475 84.7873C15.7145 78.1477 7.61651 67.8415 1.97951 56.0645C8.58451 74.7955 24.6525 88.8989 42.5915 92.2448C47.5705 93.42 52.5535 93.4544 57.3205 92.4955C61.5095 91.8363 65.6905 90.5431 69.7735 88.5228C73.0605 86.8055 75.7055 84.4196 77.9635 81.7151C73.5675 86.1776 68.2345 89.6614 61.2985 91.4728C61.2445 91.4864 61.1895 91.4927 61.1355 91.5052Z" fill="url(#paint2_linear_67_2)"/>
<path d="M72.4755 89.1287C76.8865 86.9538 79.6885 82.5936 82.4855 79.6707C84.0635 76.9224 85.4465 74.0204 86.6045 71.013C83.3235 77.9952 78.4175 84.0822 72.4755 89.1287Z" fill="url(#paint3_linear_67_2)"/>
<path d="M10.4535 61.9676C10.5135 62.1546 10.5885 62.3312 10.6505 62.5161C10.5805 62.2925 10.5055 62.0711 10.4405 61.8465C10.4445 61.8883 10.4485 61.9279 10.4535 61.9676Z" fill="url(#paint4_linear_67_2)"/>
<path d="M86.6045 71.013C89.1375 65.6217 90.6945 59.6966 91.0055 53.3015C90.7795 55.6822 90.3225 58.0754 89.6385 60.4603C88.9385 64.0663 87.9165 67.6075 86.6045 71.013Z" fill="url(#paint5_linear_67_2)"/>
<path d="M56.5355 99.181C55.9245 99.462 55.3095 99.7368 54.6905 100C54.6905 100 55.1115 99.9123 56.5355 99.181Z" fill="url(#paint6_linear_67_2)"/>
<path d="M56.5355 99.181C62.3055 96.5455 67.7185 93.1693 72.4745 89.1287C72.4305 89.1506 72.3915 89.1799 72.3465 89.2008C63.2775 95.412 58.7225 98.0581 56.5355 99.181Z" fill="url(#paint7_linear_67_2)"/>
<path d="M89.5595 38.4753C89.5555 38.4366 89.5515 38.399 89.5465 38.3604C89.4895 38.1817 89.4175 38.0125 89.3585 37.836C89.4245 38.0491 89.4965 38.2611 89.5595 38.4753Z" fill="url(#paint8_linear_67_2)"/>
<path d="M86.7225 29.5083C85.0785 26.0757 82.7955 23.3137 80.2075 20.9539C84.4785 25.545 87.8125 31.117 89.5465 38.3614C89.5655 38.4398 89.5775 38.515 89.5965 38.5933C89.5845 38.5536 89.5715 38.515 89.5595 38.4763C90.5245 46.5867 90.8135 54.695 89.0565 62.3228C89.2675 61.7023 89.4605 61.0818 89.6385 60.4603C90.9735 53.5804 91.1195 46.4593 89.8065 39.5742C90.8445 44.3554 91.2175 48.9371 91.0055 53.3015C91.4745 48.3385 90.9815 43.433 89.6555 38.7918C88.9985 35.6277 88.0315 32.5168 86.7225 29.5083Z" fill="url(#paint9_linear_67_2)"/>
<path d="M61.2995 91.4739C61.4715 91.4133 61.6355 91.3381 61.8065 91.2754C61.6005 91.3454 61.3965 91.4216 61.1895 91.4874C61.2255 91.4833 61.2625 91.4791 61.2995 91.4739Z" fill="url(#paint10_linear_67_2)"/>
<path d="M14.6905 44.2624C13.2785 60.4926 20.3395 73.7708 33.0505 82.6228C35.4675 84.3057 37.8855 84.548 40.3035 84.4457C42.9615 85.414 45.7895 85.9865 48.7535 86.1045C45.6065 86.3521 42.4595 86.4691 39.3115 85.8622C39.8755 86.0293 40.4375 86.1965 40.9985 86.3636C42.0915 86.6206 43.2065 86.8493 44.3515 87.0478C59.8875 88.5228 72.5985 81.1457 81.0735 67.8676C82.6845 65.3428 82.9165 62.818 82.8185 60.2931C83.7455 57.5165 84.2945 54.5624 84.4065 51.4661C84.6435 54.7525 84.7555 58.0399 84.1755 61.3262C84.3355 60.7371 84.4955 60.149 84.6565 59.5629C84.9015 58.4233 85.1205 57.2585 85.3105 56.0645C86.7225 39.8354 79.6605 26.5562 66.9495 17.7052C64.5325 16.0213 62.1155 15.78 59.6985 15.8813C57.0405 14.9129 54.2125 14.3405 51.2505 14.2224C54.3975 13.9749 57.5465 13.8589 60.6935 14.4658C60.1285 14.2977 59.5635 14.1305 59.0015 13.9623C57.9095 13.7054 56.7945 13.4776 55.6505 13.2781C40.1145 11.8031 27.4025 19.1791 18.9285 32.4572C17.3175 34.9821 17.0855 37.5069 17.1825 40.0318C16.2555 42.8073 15.7075 45.7615 15.5945 48.8567C15.3575 45.5682 15.2465 42.2798 15.8275 38.9913C15.6675 39.5815 15.5065 40.1707 15.3465 40.7578C15.1005 41.9016 14.8815 43.0674 14.6905 44.2624ZM57.0625 85.5728C56.5225 85.5728 55.9835 85.5854 55.4435 85.6062C55.5125 85.5927 55.5815 85.5854 55.6505 85.5728C53.9975 84.8823 52.2645 84.4384 50.4925 84.101C59.7105 83.5254 68.5565 79.465 74.9105 73.0259C70.6435 78.8904 64.6995 84.4342 57.0625 85.5728ZM83.8965 42.7864C83.8965 43.3505 83.9085 43.9146 83.9285 44.4797C83.9155 44.4066 83.9085 44.3356 83.8965 44.2624C83.2355 45.9892 82.8105 47.7995 82.4875 49.6506C81.9365 40.0213 78.0495 30.7796 71.8855 24.1432C77.4995 28.5984 82.8065 34.8076 83.8965 42.7864ZM42.9385 14.7541C43.4785 14.7541 44.0185 14.7416 44.5585 14.7207C44.4895 14.7333 44.4215 14.7406 44.3515 14.7541C46.0045 15.4446 47.7365 15.8886 49.5075 16.2271C40.2895 16.8016 31.4435 20.8631 25.0905 27.3021C29.3555 21.4376 35.3005 15.8938 42.9385 14.7541ZM50.0005 21.9108C64.9125 21.9108 77.0005 34.5381 77.0005 50.1154C77.0005 65.6927 64.9125 78.3201 50.0005 78.3201C35.0885 78.3201 23.0005 65.6927 23.0005 50.1154C23.0005 34.5381 35.0885 21.9108 50.0005 21.9108ZM16.1035 56.0645C16.7645 54.3388 17.1895 52.5285 17.5135 50.6785C18.0635 60.3077 21.9515 69.5474 28.1155 76.1849C22.5025 71.7285 17.1945 65.5183 16.1035 57.5395C16.1035 56.9754 16.0915 56.4124 16.0715 55.8483C16.0835 55.9214 16.0895 55.9924 16.1035 56.0645Z" fill="url(#paint11_linear_67_2)"/>
<path d="M83.0775 65.3177C82.5715 66.659 81.9295 68.0013 81.0725 69.3437C72.5475 82.2071 60.2105 89.0859 47.4715 88.223C47.8425 88.3233 48.2045 88.4225 48.5875 88.5228C52.8245 88.5228 55.6495 88.5228 59.8875 87.0478C64.6725 84.5481 69.4545 83.1023 73.3825 80.028C64.5445 88.6555 52.0635 93.1766 38.7015 88.5228C26.1685 84.1605 15.0225 75.4839 10.6505 62.5161C14.2335 73.9515 22.8585 83.6737 34.4635 88.5228C54.2365 97.3759 74.0095 88.5228 82.4845 67.8676C82.5645 67.5334 82.6445 67.2179 82.7245 66.892C82.3415 67.6953 81.9195 68.4923 81.4765 69.2883C82.0755 68.0107 82.6085 66.6883 83.0775 65.3177Z" fill="url(#paint12_linear_67_2)"/>
<path d="M83.9295 62.5464C84.0235 62.14 84.1025 61.7336 84.1745 61.3262C83.8745 62.4283 83.5745 63.5534 83.2765 64.7098C83.2105 64.9114 83.1465 65.1172 83.0785 65.3167C83.1245 65.1965 83.1695 65.0764 83.2125 64.9552C83.0505 65.5851 82.8885 66.2318 82.7265 66.892C84.9405 62.2486 86.1445 57.5019 86.4355 52.8074C85.8425 55.2058 85.2495 57.3954 84.6575 59.5629C84.4375 60.5793 84.1955 61.5738 83.9295 62.5464Z" fill="url(#paint13_linear_67_2)"/>
<path d="M66.9485 11.8042C71.2715 14.5139 76.1215 17.2278 80.2075 20.9539C78.3765 18.9859 76.3765 17.1954 74.2505 15.5355C71.0575 13.4223 67.6675 11.6809 64.0995 10.3814C65.0535 10.8149 66.0045 11.2777 66.9485 11.8042Z" fill="url(#paint14_linear_67_2)"/>
<path d="M64.5015 15.6086C65.7875 16.1383 67.0745 16.8089 68.3605 17.7052C80.6745 26.6105 87.2595 39.499 86.4335 52.8074C86.5295 52.4198 86.6255 52.0407 86.7215 51.6395C86.7215 47.2124 86.7215 44.2624 85.3095 39.8364C82.9165 34.8379 81.5315 29.8426 78.5895 25.7404C86.8475 34.9727 91.1755 48.0095 86.7215 61.9676C82.5415 75.0661 74.2305 86.7135 61.8055 91.2754C72.7605 87.5377 82.0765 78.5227 86.7215 66.3937C95.1955 45.7385 86.7215 25.0833 66.9485 16.2302C66.6275 16.1456 66.3245 16.062 66.0115 15.9784C66.7825 16.3785 67.5475 16.8214 68.3105 17.2842C67.0855 16.6574 65.8165 16.0996 64.5015 15.6086Z" fill="url(#paint15_linear_67_2)"/>
<path d="M38.1465 85.6062C38.5355 85.7055 38.9235 85.788 39.3125 85.8622C38.2595 85.5498 37.1855 85.2375 36.0805 84.9262C35.8845 84.8562 35.6855 84.7894 35.4915 84.7173C35.6085 84.7653 35.7255 84.8134 35.8435 84.8593C35.2415 84.6901 34.6225 84.5209 33.9925 84.3527C38.4365 86.6634 42.9795 87.9211 47.4725 88.2251C45.1735 87.6046 43.0765 86.9851 40.9995 86.3657C40.0275 86.1359 39.0765 85.8852 38.1465 85.6062Z" fill="url(#paint16_linear_67_2)"/>
<path d="M65.5365 11.8042C45.7635 2.95104 25.9895 11.8042 17.5155 32.4583C17.4345 32.7947 17.3545 33.1112 17.2745 33.4381C17.6575 32.6338 18.0815 31.8336 18.5245 31.0376C17.9255 32.3173 17.3915 33.6418 16.9215 35.0134C17.4275 33.6701 18.0705 32.3267 18.9275 30.9843C27.4515 18.122 39.7885 11.2432 52.5295 12.105C52.1585 12.0047 51.7955 11.9044 51.4125 11.8042C47.1755 11.8042 44.3505 11.8042 40.1135 13.2792C35.3275 15.7789 30.5455 17.2268 26.6175 20.3C35.4555 11.6725 47.9365 7.15144 61.2985 11.8042C73.8385 16.1696 84.9905 24.8535 89.3575 37.836C85.7795 26.3901 77.1495 16.6564 65.5365 11.8042Z" fill="url(#paint17_linear_67_2)"/>
<path d="M33.0515 88.5239C28.7295 85.8152 23.8805 83.1013 19.7955 79.3762C21.6245 81.3411 23.6225 83.1305 25.7455 84.7883C28.9385 86.9016 32.3275 88.6429 35.8945 89.9435C34.9425 89.51 33.9935 89.0493 33.0515 88.5239Z" fill="url(#paint18_linear_67_2)"/>
<path d="M61.8575 14.7218C61.4695 14.6236 61.0815 14.541 60.6925 14.4658C61.7435 14.7771 62.8155 15.0895 63.9185 15.4008C64.1125 15.4697 64.3095 15.5355 64.5015 15.6076C64.3855 15.5606 64.2705 15.5125 64.1535 15.4676C64.7575 15.6379 65.3795 15.8071 66.0115 15.9774C61.5665 13.6657 57.0235 12.4079 52.5295 12.104C54.8275 12.7234 56.9245 13.3429 59.0005 13.9623C59.9735 14.1911 60.9265 14.4429 61.8575 14.7218Z" fill="url(#paint19_linear_67_2)"/>
<path d="M13.2785 32.4583C15.8715 27.9424 18.4705 22.8781 22.0365 18.6098C20.1535 20.5215 18.4405 22.6097 16.8525 24.8295C14.8295 28.1649 13.1625 31.7051 11.9185 35.4323C12.3335 34.4368 12.7755 33.4444 13.2785 32.4583Z" fill="url(#paint20_linear_67_2)"/>
<path d="M10.4215 61.79C10.4275 61.8099 10.4345 61.8287 10.4405 61.8475C9.64351 55.139 9.31151 48.4326 10.2145 41.9977C10.6365 39.7508 11.2085 37.5612 11.9185 35.4334C11.5635 36.2858 11.2385 37.1413 10.9475 37.9989C11.7395 34.5653 12.9435 31.2298 14.6915 28.0343C15.3885 26.9417 16.1075 25.873 16.8535 24.8305C23.2095 14.3488 33.0765 5.88954 44.3515 0C26.4195 6.90073 12.9195 23.6846 9.71551 42.425C8.59051 47.6261 8.55851 52.8314 9.47551 57.8101C10.1055 62.186 11.3445 66.5545 13.2785 70.8197C14.9215 74.2523 17.2065 77.0153 19.7955 79.3751C15.5225 74.783 12.1875 69.212 10.4535 61.9666C10.4415 61.9081 10.4345 61.8485 10.4215 61.79Z" fill="url(#paint21_linear_67_2)"/>
<path d="M16.0725 37.7775C15.9785 38.1828 15.8995 38.5881 15.8275 38.9934C16.1255 37.8966 16.4245 36.7767 16.7225 35.6256C16.7895 35.4219 16.8525 35.215 16.9225 35.0134C16.8765 35.1356 16.8305 35.2568 16.7875 35.379C16.9495 34.7481 17.1125 34.0994 17.2745 33.4392C15.0615 38.0825 13.8575 42.8282 13.5665 47.5227C14.1595 45.1211 14.7535 42.9306 15.3465 40.762C15.5645 39.7445 15.8055 38.75 16.0725 37.7775Z" fill="url(#paint22_linear_67_2)"/>
<path d="M35.4905 84.7162C34.2065 84.1877 32.9235 83.517 31.6395 82.6228C19.3265 73.7164 12.7415 60.829 13.5665 47.5206C13.4705 47.9082 13.3745 48.2863 13.2785 48.6874C13.2785 53.1145 13.2785 56.0645 14.6905 60.4916C17.0825 65.489 18.4685 70.4844 21.4095 74.5866C13.1515 65.3553 8.82451 52.3175 13.2785 38.3604C17.4565 25.264 25.7645 13.6187 38.1855 9.05368C27.2335 12.7944 17.9215 21.8074 13.2785 33.9343C4.80351 54.5895 13.2785 75.2447 33.0505 84.0978C33.3725 84.1814 33.6765 84.266 33.9895 84.3506C33.2215 83.9505 32.4585 83.5097 31.6975 83.048C32.9195 83.6716 34.1825 84.2263 35.4905 84.7162Z" fill="url(#paint23_linear_67_2)"/>
<path d="M38.8685 8.82073C38.8505 8.82596 38.8325 8.83327 38.8145 8.83954C45.2375 8.00698 51.6585 7.66016 57.8205 8.60345C59.9685 9.04324 62.0625 9.64076 64.0985 10.3814C63.2825 10.0106 62.4645 9.67209 61.6435 9.36707C64.9315 10.1944 68.1255 11.4532 71.1855 13.2792C72.2305 14.0072 73.2535 14.7583 74.2495 15.5355C84.2835 22.1761 92.3825 32.4844 98.0205 44.2625C91.4145 25.5304 75.3475 11.427 57.4065 8.08114C52.4275 6.90595 47.4435 6.87252 42.6765 7.83148C38.4885 8.48959 34.3085 9.78387 30.2265 11.8031C26.9395 13.5194 24.2955 15.9053 22.0365 18.6098C26.4325 14.1462 31.7665 10.6634 38.7015 8.85207C38.7575 8.84058 38.8125 8.83222 38.8685 8.82073Z" fill="url(#paint24_linear_67_2)"/>
<defs>
<linearGradient id="paint0_linear_67_2" x1="38.8166" y1="8.8666" x2="38.747" y2="9.04334" gradientUnits="userSpaceOnUse">
<stop stop-color="#FCA5A5"/>
<stop offset="1" stop-color="#B91C1C"/>
</linearGradient>
<linearGradient id="paint1_linear_67_2" x1="89.1119" y1="64.843" x2="81.7902" y2="68.4998" gradientUnits="userSpaceOnUse">
<stop stop-color="#FCA5A5"/>
<stop offset="1" stop-color="#B91C1C"/>
</linearGradient>
<linearGradient id="paint2_linear_67_2" x1="78.3429" y1="60.8888" x2="63.4124" y2="87.5859" gradientUnits="userSpaceOnUse">
<stop stop-color="#FCA5A5"/>
<stop offset="1" stop-color="#B91C1C"/>
</linearGradient>
<linearGradient id="paint3_linear_67_2" x1="86.675" y1="73.368" x2="78.7149" y2="78.7897" gradientUnits="userSpaceOnUse">
<stop stop-color="#FCA5A5"/>
<stop offset="1" stop-color="#B91C1C"/>
</linearGradient>
<linearGradient id="paint4_linear_67_2" x1="10.6516" y1="61.9335" x2="10.4904" y2="61.9776" gradientUnits="userSpaceOnUse">
<stop stop-color="#FCA5A5"/>
<stop offset="1" stop-color="#B91C1C"/>
</linearGradient>
<linearGradient id="paint5_linear_67_2" x1="91.0275" y1="55.604" x2="87.561" y2="56.3562" gradientUnits="userSpaceOnUse">
<stop stop-color="#FCA5A5"/>
<stop offset="1" stop-color="#B91C1C"/>
</linearGradient>
<linearGradient id="paint6_linear_67_2" x1="56.5447" y1="99.2875" x2="56.2323" y2="99.9021" gradientUnits="userSpaceOnUse">
<stop stop-color="#FCA5A5"/>
<stop offset="1" stop-color="#B91C1C"/>
</linearGradient>
<linearGradient id="paint7_linear_67_2" x1="72.5541" y1="90.4355" x2="68.048" y2="96.6749" gradientUnits="userSpaceOnUse">
<stop stop-color="#FCA5A5"/>
<stop offset="1" stop-color="#B91C1C"/>
</linearGradient>
<linearGradient id="paint8_linear_67_2" x1="89.5605" y1="37.9191" x2="89.4064" y2="37.9614" gradientUnits="userSpaceOnUse">
<stop stop-color="#FCA5A5"/>
<stop offset="1" stop-color="#B91C1C"/>
</linearGradient>
<linearGradient id="paint9_linear_67_2" x1="91.2337" y1="26.3319" x2="82.6457" y2="28.3209" gradientUnits="userSpaceOnUse">
<stop stop-color="#FCA5A5"/>
<stop offset="1" stop-color="#B91C1C"/>
</linearGradient>
<linearGradient id="paint10_linear_67_2" x1="61.8096" y1="91.3029" x2="61.7413" y2="91.4764" gradientUnits="userSpaceOnUse">
<stop stop-color="#FCA5A5"/>
<stop offset="1" stop-color="#B91C1C"/>
</linearGradient>
<linearGradient id="paint11_linear_67_2" x1="85.843" y1="22.7305" x2="51.3866" y2="51.5359" gradientUnits="userSpaceOnUse">
<stop stop-color="#FCA5A5"/>
<stop offset="1" stop-color="#B91C1C"/>
</linearGradient>
<linearGradient id="paint12_linear_67_2" x1="83.4391" y1="66.3413" x2="72.8109" y2="89.1867" gradientUnits="userSpaceOnUse">
<stop stop-color="#FCA5A5"/>
<stop offset="1" stop-color="#B91C1C"/>
</linearGradient>
<linearGradient id="paint13_linear_67_2" x1="86.454" y1="54.6384" x2="83.5487" y2="55.3065" gradientUnits="userSpaceOnUse">
<stop stop-color="#FCA5A5"/>
<stop offset="1" stop-color="#B91C1C"/>
</linearGradient>
<linearGradient id="paint14_linear_67_2" x1="80.2879" y1="11.7558" x2="75.4923" y2="18.1364" gradientUnits="userSpaceOnUse">
<stop stop-color="#FCA5A5"/>
<stop offset="1" stop-color="#B91C1C"/>
</linearGradient>
<linearGradient id="paint15_linear_67_2" x1="90.1343" y1="25.4453" x2="69.1112" y2="32.2846" gradientUnits="userSpaceOnUse">
<stop stop-color="#FCA5A5"/>
<stop offset="1" stop-color="#B91C1C"/>
</linearGradient>
<linearGradient id="paint16_linear_67_2" x1="47.5398" y1="84.8561" x2="46.4542" y2="88.1562" gradientUnits="userSpaceOnUse">
<stop stop-color="#FCA5A5"/>
<stop offset="1" stop-color="#B91C1C"/>
</linearGradient>
<linearGradient id="paint17_linear_67_2" x1="89.7192" y1="12.2142" x2="79.0769" y2="35.0731" gradientUnits="userSpaceOnUse">
<stop stop-color="#FCA5A5"/>
<stop offset="1" stop-color="#B91C1C"/>
</linearGradient>
<linearGradient id="paint18_linear_67_2" x1="35.9749" y1="80.7499" x2="31.1815" y2="87.1271" gradientUnits="userSpaceOnUse">
<stop stop-color="#FCA5A5"/>
<stop offset="1" stop-color="#B91C1C"/>
</linearGradient>
<linearGradient id="paint19_linear_67_2" x1="66.0788" y1="12.6075" x2="64.9929" y2="15.9084" gradientUnits="userSpaceOnUse">
<stop stop-color="#FCA5A5"/>
<stop offset="1" stop-color="#B91C1C"/>
</linearGradient>
<linearGradient id="paint20_linear_67_2" x1="22.087" y1="20.7968" x2="15.5466" y2="24.2321" gradientUnits="userSpaceOnUse">
<stop stop-color="#FCA5A5"/>
<stop offset="1" stop-color="#B91C1C"/>
</linearGradient>
<linearGradient id="paint21_linear_67_2" x1="44.5289" y1="10.3188" x2="19.1122" y2="20.2528" gradientUnits="userSpaceOnUse">
<stop stop-color="#FCA5A5"/>
<stop offset="1" stop-color="#B91C1C"/>
</linearGradient>
<linearGradient id="paint22_linear_67_2" x1="17.293" y1="35.2701" x2="14.3884" y2="35.9379" gradientUnits="userSpaceOnUse">
<stop stop-color="#FCA5A5"/>
<stop offset="1" stop-color="#B91C1C"/>
</linearGradient>
<linearGradient id="paint23_linear_67_2" x1="38.3262" y1="18.8898" x2="17.3085" y2="25.7257" gradientUnits="userSpaceOnUse">
<stop stop-color="#FCA5A5"/>
<stop offset="1" stop-color="#B91C1C"/>
</linearGradient>
<linearGradient id="paint24_linear_67_2" x1="98.3999" y1="11.9768" x2="83.4691" y2="38.6741" gradientUnits="userSpaceOnUse">
<stop stop-color="#FCA5A5"/>
<stop offset="1" stop-color="#B91C1C"/>
</linearGradient>
</defs>
</svg>
