<svg width="100" height="100" viewBox="0 0 100 100" fill="none" xmlns="http://www.w3.org/2000/svg">
<path d="M63.39 4.608C63.297 4.579 63.205 4.547 63.112 4.529C58.945 3.325 54.549 2.667 50 2.667C23.9 2.667 2.667 23.9 2.667 50C2.667 76.1 23.9 97.333 49.999 97.333C76.099 97.333 97.333 76.1 97.333 50C97.333 28.551 82.987 10.399 63.39 4.608ZM49.999 92.333C26.657 92.333 7.667 73.343 7.667 50C7.667 26.658 26.657 7.667 49.999 7.667C54.099 7.667 58.059 8.264 61.81 9.356C72.892 14.417 80.78 24.673 82.415 36.183C83.752 45.592 79.823 55.559 71.905 62.846C71.883 62.867 71.866 62.893 71.844 62.914C71.841 62.917 71.837 62.919 71.834 62.922C61.644 73.111 45.063 73.113 34.874 62.922C26.917 54.964 26.917 42.017 34.874 34.059C37.864 31.07 41.838 29.423 46.065 29.423C50.292 29.423 54.266 31.069 57.255 34.059C59.552 36.356 60.818 39.41 60.818 42.659C60.818 45.908 59.552 48.961 57.255 51.259C53.657 54.857 47.802 54.857 44.203 51.259C41.808 48.864 41.551 45.129 43.431 42.445C42.91 43.378 42.633 44.433 42.633 45.531C42.633 47.225 43.293 48.819 44.49 50.016C45.869 51.396 47.704 52.157 49.655 52.157C51.607 52.157 53.441 51.396 54.819 50.017C56.425 48.411 57.31 46.275 57.31 44.003C57.31 41.731 56.425 39.595 54.819 37.989C52.929 36.099 50.417 35.058 47.744 35.057C45.071 35.057 42.558 36.099 40.669 37.989C36.036 42.622 36.036 50.161 40.669 54.794C46.217 60.342 55.245 60.342 60.791 54.794C64.033 51.553 65.818 47.243 65.818 42.659C65.818 38.075 64.033 33.765 60.791 30.524C56.858 26.59 51.628 24.423 46.065 24.423C40.502 24.423 35.272 26.59 31.338 30.524C21.432 40.43 21.432 56.55 31.338 66.457C37.408 72.527 45.38 75.561 53.354 75.561C61.327 75.561 69.3 72.527 75.37 66.457C75.382 66.445 75.389 66.432 75.4 66.42C84.453 58.027 88.926 46.474 87.366 35.48C86.873 32.011 85.877 28.647 84.463 25.461C89.41 32.389 92.333 40.857 92.333 50C92.333 73.343 73.342 92.333 49.999 92.333ZM48.027 41.047C47.539 40.558 46.899 40.314 46.258 40.314C46.22 40.314 46.183 40.315 46.146 40.316C46.654 40.146 47.192 40.057 47.744 40.057C49.081 40.057 50.338 40.578 51.284 41.524C51.946 42.186 52.31 43.066 52.31 44.002C52.31 44.938 51.946 45.818 51.283 46.481C50.414 47.351 48.897 47.352 48.026 46.48C47.773 46.226 47.633 45.889 47.633 45.53C47.633 45.172 47.772 44.835 48.026 44.582C49.002 43.607 49.003 42.024 48.027 41.047Z" fill="url(#paint0_radial_67_2)"/>
<defs>
<radialGradient id="paint0_radial_67_2" cx="0" cy="0" r="1" gradientUnits="userSpaceOnUse" gradientTransform="translate(50 50) rotate(90) scale(47.333)">
<stop stop-color="#FCA5A5"/>
<stop offset="0.93" stop-color="#B91C1C"/>
</radialGradient>
</defs>
</svg>
