<svg width="100" height="100" viewBox="0 0 100 100" fill="none" xmlns="http://www.w3.org/2000/svg">
<g clip-path="url(#clip0_67_2)">
<rect width="100" height="100" rx="16" fill="black"/>
<g filter="url(#filter0_d_67_2)">
<path d="M45.5513 85.0266C49.3344 82.2333 51.8089 78.1422 52.5127 73.5013C52.6447 72.6105 52.7106 71.7198 52.7106 70.829C52.7106 67.1008 51.5229 63.4827 49.2794 60.4254C47.1789 57.5771 44.2976 55.4436 40.9654 54.2669C35.4557 52.3313 29.3741 53.2441 24.6783 56.6973C20.6202 59.6886 18.1128 64.1425 17.6289 69.1134C15.2975 68.0356 13.274 66.386 11.7343 64.2855C10.1727 62.163 9.17192 59.6666 8.85299 57.0382C8.78701 56.4774 8.30312 56.0704 7.75325 56.0704C7.20338 56.0704 6.7305 56.4993 6.67551 57.0602C6.22461 61.6021 6.2686 70.2791 11.5254 77.4054C18.2448 86.5113 28.4174 88.4248 35.7636 88.4248C35.7746 88.4248 35.8736 88.4248 35.8846 88.4248C39.3708 88.3038 42.714 87.1161 45.5513 85.0266ZM13.2739 76.1187C10.3926 72.2036 9.22691 67.7497 8.842 63.8896C9.18292 64.4835 9.54583 65.0553 9.95273 65.5942C12.0532 68.4425 14.9346 70.576 18.2668 71.7527C18.5967 71.8737 18.9706 71.8187 19.2675 71.6098C19.5535 71.4118 19.7294 71.0709 19.7404 70.719C19.7844 65.8141 22.0609 61.3492 25.9869 58.4679C30.089 55.4436 35.4227 54.6518 40.2396 56.3454C43.1539 57.3681 45.6723 59.2377 47.5199 61.7341C49.9613 65.0443 50.962 69.1134 50.3462 73.1714C49.7303 77.2404 47.5749 80.8256 44.2536 83.256C41.7792 85.0816 38.8429 86.1154 35.7526 86.2473C28.9013 86.2473 19.4435 84.4987 13.2739 76.1187Z" fill="url(#paint0_radial_67_2)"/>
<path d="M57.7365 53.1891C56.3178 56.4444 55.9109 59.9965 56.5707 63.4717C57.6375 69.2123 61.4756 74.0292 66.8093 76.3607C71.4282 78.3732 76.542 78.3292 81.0839 76.2617C81.3149 78.8241 80.897 81.3975 79.8522 83.7839C78.7965 86.1923 77.1249 88.3148 75.0244 89.8985C74.5735 90.2394 74.4525 90.8552 74.7384 91.3391C75.0244 91.823 75.6292 92.01 76.1351 91.779C80.2921 89.8985 87.7814 85.5215 91.3335 77.4054C92.8732 73.8752 93.5 70.4001 93.5 67.1228C93.5 60.7773 91.1796 55.1027 88.7601 50.9017C88.7491 50.8907 88.7051 50.8027 88.6941 50.7917C86.8136 47.8334 84.1192 45.5239 80.897 44.1163C76.586 42.2357 71.8131 42.1367 67.4362 43.8523C63.0592 45.5679 59.617 48.8781 57.7365 53.1891ZM80.0172 46.1288C82.8325 47.3605 85.197 49.384 86.8576 52.0014C90.2778 57.929 93.489 67.0019 89.321 76.5256C87.3745 80.9796 84.0972 84.2238 80.941 86.4783C81.2819 85.8954 81.5898 85.2796 81.8648 84.6637C83.2834 81.4085 83.6903 77.8563 83.0305 74.3811C82.9645 74.0292 82.7336 73.7323 82.4146 73.5893C82.0957 73.4354 81.7218 73.4573 81.4139 73.6333C77.1469 76.0417 72.1431 76.3057 67.6781 74.3591C63.0042 72.3136 59.65 68.1016 58.7152 63.0758C58.1434 60.0405 58.4953 56.9282 59.738 54.0799C61.3876 50.3078 64.4009 47.4045 68.228 45.9089C72.0661 44.4022 76.2561 44.4792 80.0172 46.1288Z" fill="url(#paint1_radial_67_2)"/>
<path d="M51.4019 8.26474C40.1516 9.52944 33.4102 17.3816 29.7371 23.7491C29.7261 23.7601 29.6821 23.8371 29.6821 23.8481C28.0545 26.9603 27.4056 30.4465 27.8015 33.9437C28.3294 38.6176 30.6388 42.8076 34.312 45.7329C37.9851 48.6692 42.582 49.9889 47.2559 49.472C50.7751 49.0761 54.0633 47.6464 56.7467 45.348C61.1786 41.5429 63.4331 35.8242 62.7843 30.0286C62.2234 25.0248 59.617 20.6148 55.559 17.7115C57.6595 16.2269 60.1009 15.3031 62.6853 15.0171C65.3027 14.7202 67.964 15.1161 70.3945 16.1499C70.9113 16.3698 71.5052 16.1609 71.7801 15.677C71.8791 15.512 71.9231 15.3251 71.9231 15.1381C71.9231 14.7972 71.7581 14.4563 71.4612 14.2473C67.7331 11.586 60.1999 7.28597 51.4019 8.26474ZM64.4559 12.7297C63.774 12.7297 63.0922 12.7627 62.4213 12.8397C58.9022 13.2356 55.614 14.6652 52.9306 16.9637C52.6886 17.1726 52.5457 17.4806 52.5457 17.7995C52.5457 17.8325 52.5457 17.8655 52.5457 17.8985C52.5787 18.2504 52.7766 18.5693 53.0846 18.7453C57.3076 21.2307 60.0349 25.4427 60.5738 30.2815C61.1456 35.3513 59.1661 40.3552 55.295 43.6874C52.9526 45.6999 50.0713 46.9536 46.992 47.2945C42.901 47.7564 38.8869 46.5907 35.6757 44.0283C32.4644 41.4659 30.4409 37.7928 29.979 33.7127C29.6381 30.6555 30.21 27.5982 31.6396 24.8598C35.0598 18.9322 41.3173 11.6189 51.6439 10.4642C56.4717 9.91435 60.9257 11.1351 64.4559 12.7297Z" fill="url(#paint2_radial_67_2)"/>
</g>
</g>
<defs>
<filter id="filter0_d_67_2" x="-57" y="-55.3775" width="215" height="211.755" filterUnits="userSpaceOnUse" color-interpolation-filters="sRGB">
<feFlood flood-opacity="0" result="BackgroundImageFix"/>
<feColorMatrix in="SourceAlpha" type="matrix" values="0 0 0 0 0 0 0 0 0 0 0 0 0 0 0 0 0 0 127 0" result="hardAlpha"/>
<feOffset dx="0.5" dy="0.5"/>
<feGaussianBlur stdDeviation="32"/>
<feComposite in2="hardAlpha" operator="out"/>
<feColorMatrix type="matrix" values="0 0 0 0 0.988235 0 0 0 0 0.647059 0 0 0 0 0.647059 0 0 0 1 0"/>
<feBlend mode="normal" in2="BackgroundImageFix" result="effect1_dropShadow_67_2"/>
<feBlend mode="normal" in="SourceGraphic" in2="effect1_dropShadow_67_2" result="shape"/>
</filter>
<radialGradient id="paint0_radial_67_2" cx="0" cy="0" r="1" gradientUnits="userSpaceOnUse" gradientTransform="translate(29.6053 70.8464) rotate(50.2383) scale(21.6749 22.3485)">
<stop stop-color="#FCA5A5"/>
<stop offset="1" stop-color="#B91C1C"/>
</radialGradient>
<radialGradient id="paint1_radial_67_2" cx="0" cy="0" r="1" gradientUnits="userSpaceOnUse" gradientTransform="translate(74.8815 67.2549) rotate(64.4217) scale(25.8744 21.1312)">
<stop stop-color="#FCA5A5"/>
<stop offset="1" stop-color="#B91C1C"/>
</radialGradient>
<radialGradient id="paint2_radial_67_2" cx="0" cy="0" r="1" gradientUnits="userSpaceOnUse" gradientTransform="translate(49.8058 28.8521) rotate(55.9656) scale(23.7102 23.0623)">
<stop stop-color="#FCA5A5"/>
<stop offset="1" stop-color="#B91C1C"/>
</radialGradient>
<clipPath id="clip0_67_2">
<rect width="100" height="100" rx="16" fill="white"/>
</clipPath>
</defs>
</svg>
