<svg width="99" height="100" viewBox="0 0 99 100" fill="none" xmlns="http://www.w3.org/2000/svg">
<path d="M21.1911 54.7416L3.74808 86.5169C3.38845 87.1965 3.19816 87.967 3.19615 88.7517C3.19413 89.5365 3.38046 90.3082 3.73661 90.99C4.09275 91.6717 4.60628 92.2399 5.22612 92.6379C5.84596 93.0359 6.55049 93.2498 7.26963 93.2584L42.1556 93.2584C42.8747 93.2498 43.5793 93.0359 44.1991 92.6379C44.8189 92.2399 45.3325 91.6718 45.6886 90.99C46.0448 90.3082 46.2311 89.5365 46.2291 88.7517C46.2271 87.967 46.0368 87.1965 45.6772 86.5169L28.2342 54.7416C27.867 54.0812 27.3501 53.5352 26.7333 53.1562C26.1164 52.7772 25.4205 52.5782 24.7126 52.5782C24.0047 52.5782 23.3088 52.7772 22.692 53.1562C22.0751 53.5352 21.5582 54.0812 21.1911 54.7416Z" stroke="#7A7A7A" stroke-width="4" stroke-linecap="round" stroke-linejoin="round"/>
<path d="M70.6164 54.7416L53.1734 86.5169C52.8138 87.1965 52.6235 87.967 52.6215 88.7517C52.6195 89.5365 52.8058 90.3082 53.162 90.99C53.5181 91.6717 54.0316 92.2399 54.6515 92.6379C55.2713 93.0359 55.9758 93.2498 56.695 93.2584L91.581 93.2584C92.3001 93.2498 93.0046 93.0359 93.6245 92.6379C94.2443 92.2399 94.7578 91.6718 95.114 90.99C95.4701 90.3082 95.6565 89.5365 95.6544 88.7517C95.6524 87.967 95.4621 87.1965 95.1025 86.5169L77.6595 54.7416C77.2924 54.0812 76.7755 53.5352 76.1586 53.1562C75.5418 52.7772 74.8459 52.5782 74.138 52.5782C73.4301 52.5782 72.7342 52.7772 72.1173 53.1562C71.5005 53.5352 70.9836 54.0812 70.6164 54.7416Z" stroke="#7A7A7A" stroke-width="4" stroke-linecap="round" stroke-linejoin="round"/>
<path d="M45.9038 8.67415L28.4608 40.4494C28.1011 41.129 27.9109 41.8995 27.9088 42.6843C27.9068 43.469 28.0932 44.2407 28.4493 44.9225C28.8054 45.6043 29.319 46.1724 29.9388 46.5704C30.5587 46.9684 31.2632 47.1823 31.9823 47.191L66.8683 47.191C67.5874 47.1823 68.292 46.9684 68.9118 46.5704C69.5316 46.1724 70.0452 45.6043 70.4013 44.9225C70.7575 44.2407 70.9438 43.469 70.9418 42.6843C70.9398 41.8995 70.7495 41.129 70.3898 40.4494L52.9469 8.67415C52.5797 8.01372 52.0628 7.46768 51.446 7.08872C50.8291 6.70977 50.1332 6.51069 49.4253 6.51069C48.7174 6.51069 48.0215 6.70977 47.4047 7.08872C46.7878 7.46768 46.2709 8.01372 45.9038 8.67415Z" stroke="#7A7A7A" stroke-width="4" stroke-linecap="round" stroke-linejoin="round"/>
<path d="M52.947 85.708L70.39 53.9327C70.7496 53.2531 70.9399 52.4826 70.9419 51.6978C70.9439 50.9131 70.7576 50.1414 70.4014 49.4596C70.0453 48.7778 69.5318 48.2097 68.9119 47.8117C68.2921 47.4137 67.5876 47.1998 66.8684 47.1911L31.9824 47.1911C31.2633 47.1998 30.5588 47.4137 29.9389 47.8117C29.3191 48.2097 28.8056 48.7778 28.4494 49.4596C28.0933 50.1414 27.9069 50.9131 27.909 51.6978C27.911 52.4826 28.1013 53.2531 28.4609 53.9327L45.9039 85.708C46.271 86.3684 46.7879 86.9144 47.4048 87.2934C48.0216 87.6723 48.7175 87.8714 49.4254 87.8714C50.1333 87.8714 50.8292 87.6723 51.4461 87.2934C52.0629 86.9144 52.5798 86.3684 52.947 85.708Z" stroke="white" stroke-width="4" stroke-linecap="round" stroke-linejoin="round"/>
</svg>
