<svg width="256" height="256" viewBox="0 0 256 256" fill="none" xmlns="http://www.w3.org/2000/svg">
<rect width="256" height="256" fill="black"/>
<path d="M99.7658 132.742L82.3228 164.517C81.9631 165.196 81.7729 165.967 81.7708 166.752C81.7688 167.537 81.9552 168.308 82.3113 168.99C82.6674 169.672 83.181 170.24 83.8008 170.638C84.4207 171.036 85.1252 171.25 85.8443 171.258L120.73 171.258C121.449 171.25 122.154 171.036 122.774 170.638C123.394 170.24 123.907 169.672 124.263 168.99C124.619 168.308 124.806 167.537 124.804 166.752C124.802 165.967 124.611 165.196 124.252 164.517L106.809 132.742C106.442 132.081 105.925 131.535 105.308 131.156C104.691 130.777 103.995 130.578 103.287 130.578C102.579 130.578 101.883 130.777 101.267 131.156C100.65 131.535 100.133 132.081 99.7658 132.742Z" stroke="#7A7A7A" stroke-width="4" stroke-linecap="round" stroke-linejoin="round"/>
<path d="M149.191 132.742L131.748 164.517C131.389 165.196 131.198 165.967 131.196 166.752C131.194 167.537 131.381 168.308 131.737 168.99C132.093 169.672 132.606 170.24 133.226 170.638C133.846 171.036 134.551 171.25 135.27 171.258L170.156 171.258C170.875 171.25 171.579 171.036 172.199 170.638C172.819 170.24 173.333 169.672 173.689 168.99C174.045 168.308 174.231 167.537 174.229 166.752C174.227 165.967 174.037 165.196 173.677 164.517L156.234 132.742C155.867 132.081 155.35 131.535 154.733 131.156C154.117 130.777 153.421 130.578 152.713 130.578C152.005 130.578 151.309 130.777 150.692 131.156C150.075 131.535 149.558 132.081 149.191 132.742Z" stroke="#7A7A7A" stroke-width="4" stroke-linecap="round" stroke-linejoin="round"/>
<path d="M124.478 86.6742L107.035 118.449C106.676 119.129 106.486 119.9 106.484 120.684C106.482 121.469 106.668 122.241 107.024 122.922C107.38 123.604 107.894 124.172 108.514 124.57C109.133 124.968 109.838 125.182 110.557 125.191L145.443 125.191C146.162 125.182 146.867 124.968 147.487 124.57C148.106 124.172 148.62 123.604 148.976 122.922C149.332 122.241 149.518 121.469 149.516 120.684C149.514 119.9 149.324 119.129 148.965 118.449L131.522 86.6742C131.154 86.0137 130.638 85.4677 130.021 85.0887C129.404 84.7098 128.708 84.5107 128 84.5107C127.292 84.5107 126.596 84.7098 125.979 85.0887C125.363 85.4677 124.846 86.0137 124.478 86.6742Z" stroke="#7A7A7A" stroke-width="4" stroke-linecap="round" stroke-linejoin="round"/>
<path d="M131.522 163.708L148.965 131.933C149.324 131.253 149.515 130.483 149.517 129.698C149.519 128.913 149.332 128.141 148.976 127.46C148.62 126.778 148.106 126.21 147.487 125.812C146.867 125.414 146.162 125.2 145.443 125.191L110.557 125.191C109.838 125.2 109.133 125.414 108.514 125.812C107.894 126.21 107.38 126.778 107.024 127.46C106.668 128.141 106.482 128.913 106.484 129.698C106.486 130.483 106.676 131.253 107.036 131.933L124.479 163.708C124.846 164.368 125.363 164.914 125.979 165.293C126.596 165.672 127.292 165.871 128 165.871C128.708 165.871 129.404 165.672 130.021 165.293C130.638 164.914 131.155 164.368 131.522 163.708Z" stroke="white" stroke-width="4" stroke-linecap="round" stroke-linejoin="round"/>
</svg>
