<svg width="256" height="256" viewBox="0 0 256 256" fill="none" xmlns="http://www.w3.org/2000/svg">
<rect width="256" height="256" fill="black"/>
<path d="M93.5542 133.785L72.2738 172.551C71.8351 173.38 71.6029 174.32 71.6004 175.277C71.598 176.235 71.8253 177.176 72.2598 178.008C72.6943 178.84 73.3208 179.533 74.077 180.018C74.8332 180.504 75.6927 180.765 76.5701 180.775L119.131 180.775C120.008 180.765 120.868 180.504 121.624 180.018C122.38 179.533 123.007 178.84 123.441 178.008C123.876 177.176 124.103 176.235 124.101 175.277C124.098 174.32 123.866 173.38 123.427 172.551L102.147 133.785C101.699 132.979 101.068 132.313 100.316 131.851C99.5632 131.388 98.7142 131.145 97.8505 131.145C96.9869 131.145 96.1379 131.388 95.3853 131.851C94.6328 132.313 94.0021 132.979 93.5542 133.785Z" stroke="#7A7A7A" stroke-width="4" stroke-linecap="round" stroke-linejoin="round"/>
<path d="M153.853 133.785L132.573 172.551C132.134 173.38 131.902 174.32 131.899 175.277C131.897 176.235 132.124 177.176 132.559 178.008C132.993 178.84 133.62 179.533 134.376 180.018C135.132 180.504 135.992 180.765 136.869 180.775L179.43 180.775C180.307 180.765 181.167 180.504 181.923 180.018C182.679 179.533 183.306 178.84 183.74 178.008C184.175 177.176 184.402 176.235 184.4 175.277C184.397 174.32 184.165 173.38 183.726 172.551L162.446 133.785C161.998 132.979 161.367 132.313 160.615 131.851C159.862 131.388 159.013 131.145 158.149 131.145C157.286 131.145 156.437 131.388 155.684 131.851C154.932 132.313 154.301 132.979 153.853 133.785Z" stroke="#7A7A7A" stroke-width="4" stroke-linecap="round" stroke-linejoin="round"/>
<path d="M123.704 77.5825L102.423 116.348C101.985 117.177 101.752 118.117 101.75 119.075C101.747 120.032 101.975 120.974 102.409 121.805C102.844 122.637 103.47 123.33 104.226 123.816C104.983 124.301 105.842 124.562 106.72 124.573L149.28 124.573C150.158 124.562 151.017 124.301 151.774 123.816C152.53 123.33 153.156 122.637 153.591 121.805C154.025 120.974 154.253 120.032 154.25 119.075C154.248 118.117 154.015 117.177 153.577 116.348L132.296 77.5825C131.848 76.7767 131.218 76.1106 130.465 75.6483C129.713 75.1859 128.864 74.943 128 74.943C127.136 74.943 126.287 75.1859 125.535 75.6483C124.782 76.1106 124.152 76.7767 123.704 77.5825Z" stroke="#7A7A7A" stroke-width="4" stroke-linecap="round" stroke-linejoin="round"/>
<path d="M132.296 171.564L153.577 132.798C154.016 131.969 154.248 131.029 154.25 130.071C154.253 129.114 154.025 128.173 153.591 127.341C153.156 126.509 152.53 125.816 151.774 125.33C151.017 124.845 150.158 124.584 149.281 124.573L106.72 124.573C105.842 124.584 104.983 124.845 104.227 125.33C103.47 125.816 102.844 126.509 102.409 127.341C101.975 128.173 101.748 129.114 101.75 130.071C101.753 131.029 101.985 131.969 102.423 132.798L123.704 171.564C124.152 172.369 124.782 173.036 125.535 173.498C126.288 173.96 127.137 174.203 128 174.203C128.864 174.203 129.713 173.96 130.465 173.498C131.218 173.036 131.849 172.369 132.296 171.564Z" stroke="white" stroke-width="4" stroke-linecap="round" stroke-linejoin="round"/>
</svg>
