<svg width="69" height="69" viewBox="0 0 69 69" fill="none" xmlns="http://www.w3.org/2000/svg">
<path d="M14.6218 37.7717L2.58617 59.6966C2.33802 60.1656 2.20672 60.6972 2.20533 61.2387C2.20394 61.7802 2.33251 62.3126 2.57825 62.7831C2.82398 63.2535 3.17832 63.6455 3.60601 63.9201C4.0337 64.1947 4.51983 64.3424 5.01603 64.3483L29.0874 64.3483C29.5836 64.3424 30.0697 64.1948 30.4974 63.9201C30.9251 63.6455 31.2794 63.2535 31.5251 62.7831C31.7709 62.3126 31.8994 61.7802 31.8981 61.2387C31.8967 60.6972 31.7654 60.1656 31.5172 59.6966L19.4816 37.7717C19.2282 37.316 18.8716 36.9393 18.446 36.6778C18.0203 36.4163 17.5401 36.2789 17.0517 36.2789C16.5633 36.2789 16.0831 36.4163 15.6574 36.6778C15.2318 36.9393 14.8751 37.316 14.6218 37.7717Z" stroke="#7A7A7A" stroke-width="4" stroke-linecap="round" stroke-linejoin="round"/>
<g clip-path="url(#clip0_8_52)">
<path d="M48.7253 37.7717L36.6897 59.6966C36.4415 60.1656 36.3102 60.6972 36.3088 61.2387C36.3074 61.7802 36.436 62.3126 36.6817 62.7831C36.9275 63.2535 37.2818 63.6455 37.7095 63.9201C38.1372 64.1947 38.6233 64.3424 39.1195 64.3483L63.1909 64.3483C63.6871 64.3424 64.1732 64.1948 64.6009 63.9201C65.0286 63.6455 65.3829 63.2535 65.6286 62.7831C65.8744 62.3126 66.0029 61.7802 66.0016 61.2387C66.0002 60.6972 65.8689 60.1656 65.6207 59.6966L53.5851 37.7717C53.3317 37.316 52.9751 36.9393 52.5495 36.6778C52.1238 36.4163 51.6436 36.2789 51.1552 36.2789C50.6668 36.2789 50.1866 36.4163 49.7609 36.6778C49.3353 36.9393 48.9786 37.316 48.7253 37.7717Z" stroke="#7A7A7A" stroke-width="4" stroke-linecap="round" stroke-linejoin="round"/>
</g>
<g clip-path="url(#clip1_8_52)">
<path d="M31.6736 5.98517L19.6379 27.9101C19.3898 28.379 19.2585 28.9107 19.2571 29.4521C19.2557 29.9936 19.3843 30.5261 19.63 30.9965C19.8758 31.4669 20.2301 31.859 20.6578 32.1336C21.0855 32.4082 21.5716 32.5558 22.0678 32.5618L46.1391 32.5618C46.6353 32.5558 47.1215 32.4082 47.5491 32.1336C47.9768 31.859 48.3312 31.4669 48.5769 30.9965C48.8227 30.5261 48.9512 29.9936 48.9498 29.4521C48.9484 28.9107 48.8171 28.379 48.569 27.9101L36.5333 5.98517C36.28 5.52947 35.9233 5.1527 35.4977 4.89122C35.0721 4.62974 34.5919 4.49237 34.1035 4.49237C33.615 4.49237 33.1348 4.62974 32.7092 4.89122C32.2836 5.1527 31.9269 5.52947 31.6736 5.98517Z" stroke="#7A7A7A" stroke-width="4" stroke-linecap="round" stroke-linejoin="round"/>
</g>
<g clip-path="url(#clip2_8_52)">
<path d="M36.5334 59.1385L48.5691 37.2136C48.8172 36.7447 48.9485 36.213 48.9499 35.6715C48.9513 35.13 48.8227 34.5976 48.577 34.1271C48.3313 33.6567 47.9769 33.2647 47.5492 32.9901C47.1215 32.7155 46.6354 32.5678 46.1392 32.5619L22.0679 32.5619C21.5717 32.5678 21.0856 32.7155 20.6579 32.9901C20.2302 33.2647 19.8758 33.6567 19.6301 34.1271C19.3844 34.5976 19.2558 35.13 19.2572 35.6715C19.2586 36.213 19.3899 36.7446 19.638 37.2136L31.6737 59.1385C31.927 59.5942 32.2837 59.971 32.7093 60.2324C33.1349 60.4939 33.6151 60.6313 34.1035 60.6313C34.592 60.6313 35.0722 60.4939 35.4978 60.2324C35.9234 59.971 36.2801 59.5942 36.5334 59.1385Z" stroke="white" stroke-width="4" stroke-linecap="round" stroke-linejoin="round"/>
</g>
<defs>
<clipPath id="clip0_8_52">
<rect width="34.1034" height="37.2134" fill="white" transform="translate(34.1035 31.7866)"/>
</clipPath>
<clipPath id="clip1_8_52">
<rect width="34.1034" height="37.2134" fill="white" transform="translate(17.0518)"/>
</clipPath>
<clipPath id="clip2_8_52">
<rect width="34.1034" height="37.2134" fill="white" transform="translate(51.1552 65.1237) rotate(-180)"/>
</clipPath>
</defs>
</svg>
