<svg width="220" height="223" viewBox="0 0 220 223" fill="none" xmlns="http://www.w3.org/2000/svg">
<path d="M47.097 121.663L8.33009 192.283C7.53081 193.794 7.10789 195.506 7.10342 197.25C7.09894 198.994 7.51306 200.709 8.30458 202.225C9.0961 203.74 10.2374 205.003 11.615 205.887C12.9926 206.772 14.5584 207.247 16.1567 207.266L93.6906 207.266C95.2888 207.247 96.8547 206.772 98.2322 205.887C99.6098 205.003 100.751 203.74 101.543 202.225C102.334 200.709 102.748 198.994 102.744 197.25C102.739 195.506 102.316 193.794 101.517 192.283L62.7503 121.663C61.9343 120.195 60.7855 118.982 59.4145 118.139C58.0436 117.297 56.4969 116.855 54.9236 116.855C53.3504 116.855 51.8037 117.297 50.4327 118.139C49.0618 118.982 47.913 120.195 47.097 121.663Z" stroke="#7A7A7A" stroke-width="4" stroke-linecap="round" stroke-linejoin="round"/>
<path d="M156.945 121.663L118.178 192.283C117.378 193.794 116.955 195.506 116.951 197.25C116.946 198.994 117.361 200.709 118.152 202.225C118.944 203.74 120.085 205.003 121.463 205.887C122.84 206.772 124.406 207.247 126.004 207.266L203.538 207.266C205.136 207.247 206.702 206.772 208.08 205.887C209.457 205.003 210.599 203.74 211.39 202.225C212.182 200.709 212.596 198.994 212.591 197.25C212.587 195.506 212.164 193.794 211.365 192.283L172.598 121.663C171.782 120.195 170.633 118.982 169.262 118.139C167.891 117.297 166.344 116.855 164.771 116.855C163.198 116.855 161.651 117.297 160.28 118.139C158.909 118.982 157.761 120.195 156.945 121.663Z" stroke="#7A7A7A" stroke-width="4" stroke-linecap="round" stroke-linejoin="round"/>
<path d="M102.021 19.2782L63.2539 89.8985C62.4546 91.4089 62.0317 93.1214 62.0272 94.8655C62.0227 96.6096 62.4369 98.3247 63.2284 99.8399C64.0199 101.355 65.1612 102.618 66.5388 103.502C67.9164 104.387 69.4822 104.862 71.0805 104.882L148.614 104.882C150.213 104.862 151.778 104.387 153.156 103.502C154.534 102.618 155.675 101.355 156.466 99.8399C157.258 98.3247 157.672 96.6097 157.668 94.8655C157.663 93.1214 157.24 91.4089 156.441 89.8985L117.674 19.2782C116.858 17.8104 115.709 16.5969 114.338 15.7546C112.967 14.9124 111.421 14.4699 109.847 14.4699C108.274 14.4699 106.727 14.9124 105.357 15.7546C103.986 16.5969 102.837 17.8104 102.021 19.2782Z" stroke="#7A7A7A" stroke-width="4" stroke-linecap="round" stroke-linejoin="round"/>
<path d="M117.674 190.485L156.441 119.865C157.241 118.355 157.663 116.642 157.668 114.898C157.672 113.154 157.258 111.439 156.467 109.924C155.675 108.408 154.534 107.146 153.156 106.261C151.779 105.377 150.213 104.901 148.615 104.882L71.0808 104.882C69.4825 104.901 67.9167 105.377 66.5391 106.261C65.1615 107.146 64.0202 108.408 63.2287 109.924C62.4371 111.439 62.023 113.154 62.0275 114.898C62.032 116.642 62.4549 118.355 63.2542 119.865L102.021 190.485C102.837 191.953 103.986 193.167 105.357 194.009C106.728 194.851 108.274 195.294 109.848 195.294C111.421 195.294 112.968 194.851 114.339 194.009C115.71 193.167 116.858 191.953 117.674 190.485Z" stroke="white" stroke-width="4" stroke-linecap="round" stroke-linejoin="round"/>
</svg>
