<svg width="241" height="121" viewBox="0 0 241 121" fill="none" xmlns="http://www.w3.org/2000/svg">
<g clip-path="url(#clip0_2_5)">
<path d="M159.629 84.6067C172.209 97.6242 192.607 97.6242 205.187 84.6067C217.768 71.5892 217.768 50.4837 205.187 37.4663C192.607 24.4488 172.209 24.4488 159.629 37.4663C147.048 50.4837 147.048 71.5892 159.629 84.6067Z" fill="#D9D9D9" stroke="#7A7A7A" stroke-width="4" stroke-linecap="round" stroke-linejoin="round"/>
</g>
<path d="M58.3338 110.987C85.0214 110.987 106.656 88.6017 106.656 60.9874C106.656 33.3732 85.0214 10.9874 58.3338 10.9874C31.6462 10.9874 10.0117 33.3732 10.0117 60.9874C10.0117 88.6017 31.6462 110.987 58.3338 110.987Z" fill="#7A7A7A"/>
<path d="M182.361 110.987C209.048 110.987 230.683 88.6017 230.683 60.9874C230.683 33.3732 209.048 10.9874 182.361 10.9874C155.673 10.9874 134.039 33.3732 134.039 60.9874C134.039 88.6017 155.673 110.987 182.361 110.987Z" stroke="#7A7A7A" stroke-width="4" stroke-linecap="round" stroke-linejoin="round"/>
<defs>
<clipPath id="clip0_2_5">
<rect width="78.6692" height="78.6692" fill="white" transform="matrix(0.694939 0.719069 -0.694939 0.719069 182.408 4.46793)"/>
</clipPath>
</defs>
</svg>
