<svg width="256" height="256" viewBox="0 0 256 256" fill="none" xmlns="http://www.w3.org/2000/svg">
<rect width="256" height="256" fill="black"/>
<g clip-path="url(#clip0_10_16)">
<path d="M160.735 147.683C171.219 158.531 188.216 158.531 198.7 147.683C209.184 136.835 209.184 119.247 198.7 108.399C188.216 97.5511 171.219 97.5511 160.735 108.399C150.251 119.247 150.251 136.835 160.735 147.683Z" fill="#D9D9D9" stroke="#7A7A7A" stroke-width="4" stroke-linecap="round" stroke-linejoin="round"/>
</g>
<path d="M76.3221 169.667C98.5618 169.667 116.591 151.012 116.591 128C116.591 104.988 98.5618 86.3333 76.3221 86.3333C54.0825 86.3333 36.0537 104.988 36.0537 128C36.0537 151.012 54.0825 169.667 76.3221 169.667Z" fill="#7A7A7A"/>
<path d="M179.678 169.667C201.918 169.667 219.946 151.012 219.946 128C219.946 104.988 201.918 86.3333 179.678 86.3333C157.438 86.3333 139.409 104.988 139.409 128C139.409 151.012 157.438 169.667 179.678 169.667Z" stroke="#7A7A7A" stroke-width="4" stroke-linecap="round" stroke-linejoin="round"/>
<defs>
<clipPath id="clip0_10_16">
<rect width="65.5576" height="65.5576" fill="white" transform="matrix(0.694939 0.719069 -0.694939 0.719069 179.717 80.9004)"/>
</clipPath>
</defs>
</svg>
