<svg width="201" height="101" viewBox="0 0 201 101" fill="none" xmlns="http://www.w3.org/2000/svg">
<g clip-path="url(#clip0_10_21)">
<path d="M133.082 70.6702C143.566 81.5181 160.564 81.5181 171.047 70.6702C181.531 59.8223 181.531 42.2343 171.047 31.3864C160.564 20.5385 143.566 20.5385 133.082 31.3864C122.598 42.2343 122.598 59.8223 133.082 70.6702Z" fill="#D9D9D9" stroke="#7A7A7A" stroke-width="4" stroke-linecap="round" stroke-linejoin="round"/>
</g>
<path d="M48.6694 92.6541C70.9091 92.6541 88.9378 73.9993 88.9378 50.9874C88.9378 27.9755 70.9091 9.32075 48.6694 9.32075C26.4297 9.32075 8.40094 27.9755 8.40094 50.9874C8.40094 73.9993 26.4297 92.6541 48.6694 92.6541Z" fill="#7A7A7A"/>
<path d="M152.025 92.6541C174.265 92.6541 192.294 73.9993 192.294 50.9874C192.294 27.9755 174.265 9.32075 152.025 9.32075C129.785 9.32075 111.757 27.9755 111.757 50.9874C111.757 73.9993 129.785 92.6541 152.025 92.6541Z" stroke="#7A7A7A" stroke-width="4" stroke-linecap="round" stroke-linejoin="round"/>
<defs>
<clipPath id="clip0_10_21">
<rect width="65.5576" height="65.5576" fill="white" transform="matrix(0.694939 0.719069 -0.694939 0.719069 152.065 3.88785)"/>
</clipPath>
</defs>
</svg>
