<svg width="100" height="100" viewBox="0 0 100 100" fill="none" xmlns="http://www.w3.org/2000/svg">
<path fill-rule="evenodd" clip-rule="evenodd" d="M96.1626 53.5027C94.4924 76.4217 76.2489 94.7483 53.4294 96.4293C52.4501 96.5008 51.7129 97.3592 51.7841 98.3428C51.8589 99.3264 52.71 100.067 53.6928 99.9952C78.2644 98.1855 97.9145 78.4496 99.7129 53.7674C99.7841 52.7802 99.047 51.9219 98.0677 51.8503C97.0884 51.7788 96.2338 52.5191 96.1626 53.5027ZM46.5706 96.4293C23.7511 94.7483 5.5076 76.4217 3.83744 53.5027C3.76622 52.5191 2.91165 51.7788 1.93235 51.8503C0.95305 51.9219 0.215882 52.7802 0.287104 53.7674C2.08546 78.4496 21.7356 98.1855 46.3072 99.9952C47.2901 100.067 48.1411 99.3264 48.2159 98.3428C48.2871 97.3592 47.5499 96.5008 46.5706 96.4293ZM65.7045 53.2809C64.2195 60.6238 57.749 66.1604 50 66.1604C42.2511 66.1604 35.7805 60.6238 34.2955 53.2809C34.0997 52.3117 33.1596 51.6858 32.1945 51.8825C31.233 52.0792 30.6098 53.0234 30.8056 53.9891C32.6182 62.97 40.5275 69.737 50 69.737C59.4725 69.737 67.3818 62.97 69.1944 53.9891C69.3902 53.0234 68.767 52.0792 67.8055 51.8825C66.8404 51.6858 65.9003 52.3117 65.7045 53.2809ZM34.2991 46.8395C35.7877 39.5002 42.2546 33.9708 50 33.9708C50.9829 33.9708 51.7806 33.1696 51.7806 32.1824C51.7806 31.1953 50.9829 30.3941 50 30.3941C40.5346 30.3941 32.6289 37.1539 30.8092 46.1241C30.6134 47.0934 31.233 48.0376 32.1981 48.2344C33.1596 48.4311 34.0997 47.8052 34.2991 46.8395ZM66.0249 5.28624C66.0249 5.3077 66.0249 46.4818 66.0249 46.4818C66.0249 47.4689 66.8226 48.2701 67.8055 48.2701C68.7884 48.2701 69.586 47.4689 69.586 46.4818V7.93656C84.3717 14.8895 94.9055 29.4642 96.1626 46.6141C96.2338 47.5977 97.0884 48.338 98.0677 48.2665C99.047 48.1914 99.7841 47.3366 99.7129 46.3494C98.2885 26.8819 85.757 10.4902 68.4679 3.55517C67.5527 3.18678 66.5164 3.63386 66.1532 4.54947C66.057 4.79268 66.0178 5.04303 66.0249 5.28624ZM3.83744 46.6141C5.60019 22.5649 25.61 3.57662 50 3.57662C50.9829 3.57662 51.7806 2.77546 51.7806 1.78831C51.7806 0.801163 50.9829 0 50 0C23.7333 0 2.18161 20.4511 0.287104 46.3494C0.215882 47.3366 0.95305 48.1914 1.93235 48.2665C2.91165 48.338 3.76622 47.5977 3.83744 46.6141Z" fill="#FFFD7C"/>
</svg>
