<svg width="256" height="256" viewBox="0 0 256 256" fill="none" xmlns="http://www.w3.org/2000/svg">
<rect width="256" height="256" fill="black"/>
<g clip-path="url(#clip0_7_6)">
<path d="M153.598 143.993C161.796 152.807 175.088 152.807 183.286 143.993C191.484 135.179 191.484 120.888 183.286 112.074C175.088 103.26 161.796 103.26 153.598 112.074C145.4 120.888 145.4 135.179 153.598 143.993Z" fill="#D9D9D9" stroke="#7A7A7A" stroke-width="4" stroke-linecap="round" stroke-linejoin="round"/>
</g>
<path d="M87.5892 161.855C104.98 161.855 119.078 146.698 119.078 128C119.078 109.302 104.98 94.1449 87.5892 94.1449C70.1983 94.1449 56.1002 109.302 56.1002 128C56.1002 146.698 70.1983 161.855 87.5892 161.855Z" fill="#7A7A7A"/>
<path d="M168.411 161.855C185.802 161.855 199.9 146.698 199.9 128C199.9 109.302 185.802 94.1449 168.411 94.1449C151.02 94.1449 136.922 109.302 136.922 128C136.922 146.698 151.02 161.855 168.411 161.855Z" stroke="#7A7A7A" stroke-width="4" stroke-linecap="round" stroke-linejoin="round"/>
<defs>
<clipPath id="clip0_7_6">
<rect width="52.3095" height="52.3095" fill="white" transform="matrix(0.681055 0.732232 -0.681055 0.732232 168.442 89.7305)"/>
</clipPath>
</defs>
</svg>
