<svg width="256" height="256" viewBox="0 0 256 256" fill="none" xmlns="http://www.w3.org/2000/svg">
<path fill-rule="evenodd" clip-rule="evenodd" d="M174.163 131.503C172.492 154.422 154.249 172.748 131.429 174.429C130.45 174.501 129.713 175.359 129.784 176.343C129.859 177.326 130.71 178.067 131.693 177.995C156.264 176.185 175.915 156.45 177.713 131.767C177.784 130.78 177.047 129.922 176.068 129.85C175.088 129.779 174.234 130.519 174.163 131.503ZM124.571 174.429C101.751 172.748 83.5076 154.422 81.8374 131.503C81.7662 130.519 80.9116 129.779 79.9323 129.85C78.953 129.922 78.2159 130.78 78.2871 131.767C80.0855 156.45 99.7356 176.185 124.307 177.995C125.29 178.067 126.141 177.326 126.216 176.343C126.287 175.359 125.55 174.501 124.571 174.429ZM143.704 131.281C142.219 138.624 135.749 144.16 128 144.16C120.251 144.16 113.781 138.624 112.296 131.281C112.1 130.312 111.16 129.686 110.195 129.882C109.233 130.079 108.61 131.023 108.806 131.989C110.618 140.97 118.527 147.737 128 147.737C137.473 147.737 145.382 140.97 147.194 131.989C147.39 131.023 146.767 130.079 145.805 129.882C144.84 129.686 143.9 130.312 143.704 131.281ZM112.299 124.839C113.788 117.5 120.255 111.971 128 111.971C128.983 111.971 129.781 111.17 129.781 110.182C129.781 109.195 128.983 108.394 128 108.394C118.535 108.394 110.629 115.154 108.809 124.124C108.613 125.093 109.233 126.038 110.198 126.234C111.16 126.431 112.1 125.805 112.299 124.839ZM144.025 83.2862C144.025 83.3077 144.025 124.482 144.025 124.482C144.025 125.469 144.823 126.27 145.805 126.27C146.788 126.27 147.586 125.469 147.586 124.482V85.9366C162.372 92.8895 172.905 107.464 174.163 124.614C174.234 125.598 175.088 126.338 176.068 126.266C177.047 126.191 177.784 125.337 177.713 124.349C176.288 104.882 163.757 88.4902 146.468 81.5552C145.553 81.1868 144.516 81.6339 144.153 82.5495C144.057 82.7927 144.018 83.043 144.025 83.2862ZM81.8374 124.614C83.6002 100.565 103.61 81.5766 128 81.5766C128.983 81.5766 129.781 80.7755 129.781 79.7883C129.781 78.8012 128.983 78 128 78C101.733 78 80.1816 98.4511 78.2871 124.349C78.2159 125.337 78.953 126.191 79.9323 126.266C80.9116 126.338 81.7662 125.598 81.8374 124.614Z" fill="#FFFD7C"/>
</svg>
