<svg width="237" height="100" viewBox="0 0 237 100" fill="none" xmlns="http://www.w3.org/2000/svg">
<path d="M208.241 43.946L207.388 43.1632L170.236 19.3506L168.94 18.8828L118.853 13.0734L118.781 13L118.497 13.0336L118.214 13L118.142 13.0734L68.0544 18.8828L66.7585 19.3506L29.6036 43.1632L28.7486 43.946L0 80.6249L2.48768 87H117.88H119.12H234.512L237 80.6249L208.241 43.946ZM65.051 72.0973L38.4027 46.285L65.051 29.2083V72.0973ZM35.9123 53.8832L62.2053 79.356H35.9123V53.8832ZM71.7311 32.1864L111.283 79.3529H71.7311V32.1864ZM75.5468 25.6952L114.537 21.173V72.1982L75.5468 25.6952ZM169.712 27.7774L199.832 47.0831L169.712 75.1396V27.7774ZM122.457 21.1699L161.555 25.7043L122.457 73.5007V21.1699ZM163.032 35.082V79.356H126.818L163.032 35.082ZM202.416 54.5344V79.3529H175.767L202.416 54.5344ZM29.2322 54.779V79.356H9.96941L29.2322 54.779ZM209.096 79.356V56.4821L227.025 79.356H209.096Z" fill="#3A7134"/>
</svg>
