<svg width="257" height="256" viewBox="0 0 257 256" fill="none" xmlns="http://www.w3.org/2000/svg">
<path d="M218.393 121.946L217.541 121.163L180.389 97.3506L179.093 96.8828L129.005 91.0734L128.933 91L128.65 91.0336L128.367 91L128.295 91.0734L78.2071 96.8828L76.9112 97.3506L39.7564 121.163L38.9013 121.946L10.1527 158.625L12.6404 165H128.033H129.273H244.665L247.153 158.625L218.393 121.946ZM75.2038 150.097L48.5554 124.285L75.2038 107.208V150.097ZM46.0651 131.883L72.358 157.356H46.0651V131.883ZM81.8839 110.186L121.436 157.353H81.8839V110.186ZM85.6996 103.695L124.69 99.173V150.198L85.6996 103.695ZM179.865 105.777L209.985 125.083L179.865 153.14V105.777ZM132.61 99.1699L171.707 103.704L132.61 151.501V99.1699ZM173.185 113.082V157.356H136.971L173.185 113.082ZM212.568 132.534V157.353H185.92L212.568 132.534ZM39.3849 132.779V157.356H20.1222L39.3849 132.779ZM219.249 157.356V134.482L237.178 157.356H219.249Z" fill="#3A7134"/>
</svg>
