<svg width="100" height="100" viewBox="0 0 100 100" fill="none" xmlns="http://www.w3.org/2000/svg">
<path d="M98.9577 32.4265C95.3727 16.5972 84.9488 6.12248 73.6085 1.11141C87.7092 13.5343 100.699 37.5753 84.5384 59.4796C77.8346 68.5705 64.4284 72.1629 58.8122 69.6282C58.8122 69.6282 67.495 67.7843 72.8955 63.0621C83.3975 53.1206 86.9069 37.1053 78.5005 22.5458C77.2989 20.465 75.8989 18.5702 74.3377 16.8725C74.3154 16.8465 74.2968 16.8204 74.2744 16.7956C68.3668 9.7484 60.2531 5.54213 51.5355 4.25123C40.2175 2.12454 25.6233 4.88986 14.6935 14.9976C2.77776 26.0192 -1.08129 40.2835 0.250529 52.6122C3.95706 34.1874 18.2834 10.919 45.3328 13.9584C56.559 15.222 66.3703 25.0346 66.9854 31.1667C66.9854 31.1667 60.4416 20.8977 44.2118 20.8977C43.9141 20.9027 43.2854 20.9275 43.2681 20.9275C43.1999 20.9312 43.1304 20.9349 43.061 20.9399C32.5081 21.3528 22.2491 26.8723 15.9906 37.7129C14.7889 39.7925 13.849 41.9527 13.1583 44.155C13.1459 44.1848 13.1347 44.217 13.1236 44.2468C9.97505 52.8875 10.3892 62.0168 13.6283 70.2111C17.4464 81.0777 27.1399 92.3349 41.3571 96.7445C56.8603 101.553 71.1433 97.7614 81.153 90.4463C63.3421 96.4444 36.0286 95.6744 25.136 70.7306C20.616 60.3762 24.2072 46.9724 29.212 43.3738C29.212 43.3738 23.5896 54.1747 31.707 68.2294C37.265 77.51 47.3528 83.9261 60.1651 83.9261C60.7826 83.9261 65.7304 83.5404 67.5136 83.1411C67.5471 83.1374 67.5818 83.1312 67.6129 83.1275C76.669 81.5328 84.3685 76.6097 89.8446 69.7076C97.3469 60.9702 102.249 46.9451 98.9577 32.4265Z" fill="url(#paint0_radial_67_2)"/>
<defs>
<radialGradient id="paint0_radial_67_2" cx="0" cy="0" r="1" gradientUnits="userSpaceOnUse" gradientTransform="translate(50 50) rotate(90) scale(36.5 37.3298)">
<stop stop-color="#FCA5A5"/>
<stop offset="1" stop-color="#B91C1C"/>
</radialGradient>
</defs>
</svg>
