<svg width="100" height="100" viewBox="0 0 100 100" fill="none" xmlns="http://www.w3.org/2000/svg">
<g clip-path="url(#clip0_33_12)">
<path d="M37.7964 21.6804C45.3734 24.297 52.3457 28.8771 58.1925 35.0787C62.6822 39.5147 67.6287 43.2799 72.9175 46.2871C73.9001 30.4569 71.61 14.5828 66.24 0H28.62C32.5269 6.69458 35.6154 13.9915 37.7964 21.6804Z" fill="#E95E5E"/>
<path d="M72.295 52.7812C65.9931 49.5181 60.1285 45.2097 54.8829 39.9896C50.3088 35.3701 45.1304 31.6345 39.5443 28.9246C41.199 37.2087 41.7145 45.747 41.0714 54.22C45.0477 56.8613 48.8148 59.91 52.3282 63.33C56.957 67.7645 61.895 71.7406 67.0907 75.2167C69.5935 68.01 71.3409 60.4769 72.295 52.7812Z" fill="#E95E5E"/>
<path d="M49.0164 68.2433C46.2613 65.6077 43.3735 63.1667 40.3686 60.9333C38.2175 75.2366 33.0049 88.6744 25.2143 100H54.6839C58.6935 94.1184 62.1281 87.7332 64.9239 80.9629C59.3134 77.2729 53.9905 73.0168 49.0164 68.2433Z" fill="#E95E5E"/>
<path d="M30.4896 49.9492C32.3128 50.3227 34.1073 50.8661 35.8561 51.5742C36.2841 43.2969 35.5208 34.9944 33.5979 27.0113C23.8161 25.1692 12.5418 28.3558 0 36.5113V57.3208C9.15708 50.9142 19.9044 48.3158 30.4896 49.9492Z" fill="#E95E5E"/>
<path d="M100 56.4492C97.323 56.9123 94.6216 57.1585 91.9154 57.1858C87.0256 57.2036 82.1576 56.4277 77.4511 54.8804C76.3786 62.8421 74.5064 70.6287 71.8732 78.0796C80.7486 82.8495 90.2646 85.7911 100 86.7742V56.4492Z" fill="#E95E5E"/>
<path d="M35.3171 57.9775C33.4654 57.1282 31.5439 56.5023 29.5829 56.1096C20.6282 54.3058 10.6757 57.1604 0 64.5V95.8333C0 96.9384 0.376274 97.9982 1.04605 98.7796C1.71582 99.561 2.62423 100 3.57143 100H18.2104C27.3376 88.2654 33.2891 73.6457 35.3171 57.9775Z" fill="#E95E5E"/>
<path d="M69.6989 83.7846C67.3439 89.4639 64.5645 94.89 61.3929 100H96.4286C97.3758 100 98.2842 99.561 98.9539 98.7796C99.6237 97.9982 100 96.9384 100 95.8333V93.0512C89.5134 92.0494 79.2582 88.9132 69.6989 83.7846Z" fill="#E95E5E"/>
<path d="M31.7661 20.5021C29.3881 13.1558 26.1106 6.25007 22.0357 0H3.57143C2.62423 0 1.71582 0.438988 1.04605 1.22039C0.376274 2.00179 0 3.0616 0 4.16667V29.4275C9.63904 22.969 20.6636 19.8714 31.7661 20.5021Z" fill="#E95E5E"/>
<path d="M78.1204 48.5833C85.2167 51.039 92.6998 51.5736 100 50.1463V4.16667C100 3.0616 99.6237 2.00179 98.954 1.22039C98.2842 0.438988 97.3758 0 96.4286 0H72.0493C77.3211 15.4116 79.4012 32.0572 78.1204 48.5833Z" fill="#E95E5E"/>
</g>
<defs>
<clipPath id="clip0_33_12">
<rect width="100" height="100" fill="white"/>
</clipPath>
</defs>
</svg>
