<svg width="108" height="108" viewBox="0 0 108 108" fill="none" xmlns="http://www.w3.org/2000/svg">
<path fill-rule="evenodd" clip-rule="evenodd" d="M100.163 57.5027C98.4924 80.4217 80.2489 98.7483 57.4294 100.429C56.4501 100.501 55.7129 101.359 55.7841 102.343C55.8589 103.326 56.7099 104.067 57.6928 103.995C82.2644 102.185 101.915 82.4496 103.713 57.7674C103.784 56.7802 103.047 55.9219 102.068 55.8503C101.088 55.7788 100.234 56.5191 100.163 57.5027ZM50.5706 100.429C27.7511 98.7483 9.5076 80.4217 7.83744 57.5027C7.76622 56.5191 6.91165 55.7788 5.93235 55.8503C4.95305 55.9219 4.21588 56.7802 4.2871 57.7674C6.08546 82.4496 25.7356 102.185 50.3072 103.995C51.2901 104.067 52.1411 103.326 52.2159 102.343C52.2871 101.359 51.5499 100.501 50.5706 100.429ZM69.7045 57.2809C68.2195 64.6238 61.749 70.1604 54 70.1604C46.2511 70.1604 39.7805 64.6238 38.2955 57.2809C38.0997 56.3117 37.1596 55.6858 36.1945 55.8825C35.233 56.0792 34.6098 57.0234 34.8056 57.9891C36.6182 66.97 44.5275 73.737 54 73.737C63.4725 73.737 71.3818 66.97 73.1944 57.9891C73.3902 57.0234 72.767 56.0792 71.8055 55.8825C70.8404 55.6858 69.9003 56.3117 69.7045 57.2809ZM38.2991 50.8395C39.7877 43.5002 46.2546 37.9708 54 37.9708C54.9829 37.9708 55.7806 37.1696 55.7806 36.1824C55.7806 35.1953 54.9829 34.3941 54 34.3941C44.5346 34.3941 36.6289 41.1539 34.8092 50.1241C34.6134 51.0934 35.233 52.0376 36.1981 52.2344C37.1596 52.4311 38.0997 51.8052 38.2991 50.8395ZM70.0249 9.28624C70.0249 9.3077 70.0249 50.4818 70.0249 50.4818C70.0249 51.4689 70.8226 52.2701 71.8055 52.2701C72.7884 52.2701 73.586 51.4689 73.586 50.4818V11.9366C88.3717 18.8895 98.9055 33.4642 100.163 50.6141C100.234 51.5977 101.088 52.338 102.068 52.2665C103.047 52.1914 103.784 51.3366 103.713 50.3494C102.288 30.8819 89.757 14.4902 72.4679 7.55517C71.5527 7.18678 70.5164 7.63386 70.1532 8.54947C70.057 8.79269 70.0178 9.04303 70.0249 9.28624ZM7.83744 50.6141C9.60019 26.5649 29.61 7.57662 54 7.57662C54.9829 7.57662 55.7806 6.77546 55.7806 5.78831C55.7806 4.80116 54.9829 4 54 4C27.7333 4 6.18161 24.4511 4.2871 50.3494C4.21588 51.3366 4.95305 52.1914 5.93235 52.2665C6.91165 52.338 7.76622 51.5977 7.83744 50.6141Z" fill="url(#paint0_linear_10_21)"/>
<path fill-rule="evenodd" clip-rule="evenodd" d="M100.163 57.5027C98.4924 80.4217 80.2489 98.7483 57.4294 100.429C56.4501 100.501 55.7129 101.359 55.7841 102.343C55.8589 103.326 56.7099 104.067 57.6928 103.995C82.2644 102.185 101.915 82.4496 103.713 57.7674C103.784 56.7802 103.047 55.9219 102.068 55.8503C101.088 55.7788 100.234 56.5191 100.163 57.5027ZM50.5706 100.429C27.7511 98.7483 9.5076 80.4217 7.83744 57.5027C7.76622 56.5191 6.91165 55.7788 5.93235 55.8503C4.95305 55.9219 4.21588 56.7802 4.2871 57.7674C6.08546 82.4496 25.7356 102.185 50.3072 103.995C51.2901 104.067 52.1411 103.326 52.2159 102.343C52.2871 101.359 51.5499 100.501 50.5706 100.429ZM69.7045 57.2809C68.2195 64.6238 61.749 70.1604 54 70.1604C46.2511 70.1604 39.7805 64.6238 38.2955 57.2809C38.0997 56.3117 37.1596 55.6858 36.1945 55.8825C35.233 56.0792 34.6098 57.0234 34.8056 57.9891C36.6182 66.97 44.5275 73.737 54 73.737C63.4725 73.737 71.3818 66.97 73.1944 57.9891C73.3902 57.0234 72.767 56.0792 71.8055 55.8825C70.8404 55.6858 69.9003 56.3117 69.7045 57.2809ZM38.2991 50.8395C39.7877 43.5002 46.2546 37.9708 54 37.9708C54.9829 37.9708 55.7806 37.1696 55.7806 36.1824C55.7806 35.1953 54.9829 34.3941 54 34.3941C44.5346 34.3941 36.6289 41.1539 34.8092 50.1241C34.6134 51.0934 35.233 52.0376 36.1981 52.2344C37.1596 52.4311 38.0997 51.8052 38.2991 50.8395ZM70.0249 9.28624C70.0249 9.3077 70.0249 50.4818 70.0249 50.4818C70.0249 51.4689 70.8226 52.2701 71.8055 52.2701C72.7884 52.2701 73.586 51.4689 73.586 50.4818V11.9366C88.3717 18.8895 98.9055 33.4642 100.163 50.6141C100.234 51.5977 101.088 52.338 102.068 52.2665C103.047 52.1914 103.784 51.3366 103.713 50.3494C102.288 30.8819 89.757 14.4902 72.4679 7.55517C71.5527 7.18678 70.5164 7.63386 70.1532 8.54947C70.057 8.79269 70.0178 9.04303 70.0249 9.28624ZM7.83744 50.6141C9.60019 26.5649 29.61 7.57662 54 7.57662C54.9829 7.57662 55.7806 6.77546 55.7806 5.78831C55.7806 4.80116 54.9829 4 54 4C27.7333 4 6.18161 24.4511 4.2871 50.3494C4.21588 51.3366 4.95305 52.1914 5.93235 52.2665C6.91165 52.338 7.76622 51.5977 7.83744 50.6141Z" fill="url(#paint1_linear_10_21)"/>
<g style="mix-blend-mode:screen" opacity="0.3" filter="url(#filter0_f_10_21)">
<path fill-rule="evenodd" clip-rule="evenodd" d="M100.163 57.5027C98.4924 80.4217 80.2489 98.7483 57.4294 100.429C56.4501 100.501 55.7129 101.359 55.7841 102.343C55.8589 103.326 56.7099 104.067 57.6928 103.995C82.2644 102.185 101.915 82.4496 103.713 57.7674C103.784 56.7802 103.047 55.9219 102.068 55.8503C101.088 55.7788 100.234 56.5191 100.163 57.5027ZM50.5706 100.429C27.7511 98.7483 9.5076 80.4217 7.83744 57.5027C7.76622 56.5191 6.91165 55.7788 5.93235 55.8503C4.95305 55.9219 4.21588 56.7802 4.2871 57.7674C6.08546 82.4496 25.7356 102.185 50.3072 103.995C51.2901 104.067 52.1411 103.326 52.2159 102.343C52.2871 101.359 51.5499 100.501 50.5706 100.429ZM69.7045 57.2809C68.2195 64.6238 61.749 70.1604 54 70.1604C46.2511 70.1604 39.7805 64.6238 38.2955 57.2809C38.0997 56.3117 37.1596 55.6858 36.1945 55.8825C35.233 56.0792 34.6098 57.0234 34.8056 57.9891C36.6182 66.97 44.5275 73.737 54 73.737C63.4725 73.737 71.3818 66.97 73.1944 57.9891C73.3902 57.0234 72.767 56.0792 71.8055 55.8825C70.8404 55.6858 69.9003 56.3117 69.7045 57.2809ZM38.2991 50.8395C39.7877 43.5002 46.2546 37.9708 54 37.9708C54.9829 37.9708 55.7806 37.1696 55.7806 36.1824C55.7806 35.1953 54.9829 34.3941 54 34.3941C44.5346 34.3941 36.6289 41.1539 34.8092 50.1241C34.6134 51.0934 35.233 52.0376 36.1981 52.2344C37.1596 52.4311 38.0997 51.8052 38.2991 50.8395ZM70.0249 9.28624C70.0249 9.3077 70.0249 50.4818 70.0249 50.4818C70.0249 51.4689 70.8226 52.2701 71.8055 52.2701C72.7884 52.2701 73.586 51.4689 73.586 50.4818V11.9366C88.3717 18.8895 98.9055 33.4642 100.163 50.6141C100.234 51.5977 101.088 52.338 102.068 52.2665C103.047 52.1914 103.784 51.3366 103.713 50.3494C102.288 30.8819 89.757 14.4902 72.4679 7.55517C71.5527 7.18678 70.5164 7.63386 70.1532 8.54947C70.057 8.79269 70.0178 9.04303 70.0249 9.28624ZM7.83744 50.6141C9.60019 26.5649 29.61 7.57662 54 7.57662C54.9829 7.57662 55.7806 6.77546 55.7806 5.78831C55.7806 4.80116 54.9829 4 54 4C27.7333 4 6.18161 24.4511 4.2871 50.3494C4.21588 51.3366 4.95305 52.1914 5.93235 52.2665C6.91165 52.338 7.76622 51.5977 7.83744 50.6141Z" fill="#5E5E5F"/>
<path fill-rule="evenodd" clip-rule="evenodd" d="M100.163 57.5027C98.4924 80.4217 80.2489 98.7483 57.4294 100.429C56.4501 100.501 55.7129 101.359 55.7841 102.343C55.8589 103.326 56.7099 104.067 57.6928 103.995C82.2644 102.185 101.915 82.4496 103.713 57.7674C103.784 56.7802 103.047 55.9219 102.068 55.8503C101.088 55.7788 100.234 56.5191 100.163 57.5027ZM50.5706 100.429C27.7511 98.7483 9.5076 80.4217 7.83744 57.5027C7.76622 56.5191 6.91165 55.7788 5.93235 55.8503C4.95305 55.9219 4.21588 56.7802 4.2871 57.7674C6.08546 82.4496 25.7356 102.185 50.3072 103.995C51.2901 104.067 52.1411 103.326 52.2159 102.343C52.2871 101.359 51.5499 100.501 50.5706 100.429ZM69.7045 57.2809C68.2195 64.6238 61.749 70.1604 54 70.1604C46.2511 70.1604 39.7805 64.6238 38.2955 57.2809C38.0997 56.3117 37.1596 55.6858 36.1945 55.8825C35.233 56.0792 34.6098 57.0234 34.8056 57.9891C36.6182 66.97 44.5275 73.737 54 73.737C63.4725 73.737 71.3818 66.97 73.1944 57.9891C73.3902 57.0234 72.767 56.0792 71.8055 55.8825C70.8404 55.6858 69.9003 56.3117 69.7045 57.2809ZM38.2991 50.8395C39.7877 43.5002 46.2546 37.9708 54 37.9708C54.9829 37.9708 55.7806 37.1696 55.7806 36.1824C55.7806 35.1953 54.9829 34.3941 54 34.3941C44.5346 34.3941 36.6289 41.1539 34.8092 50.1241C34.6134 51.0934 35.233 52.0376 36.1981 52.2344C37.1596 52.4311 38.0997 51.8052 38.2991 50.8395ZM70.0249 9.28624C70.0249 9.3077 70.0249 50.4818 70.0249 50.4818C70.0249 51.4689 70.8226 52.2701 71.8055 52.2701C72.7884 52.2701 73.586 51.4689 73.586 50.4818V11.9366C88.3717 18.8895 98.9055 33.4642 100.163 50.6141C100.234 51.5977 101.088 52.338 102.068 52.2665C103.047 52.1914 103.784 51.3366 103.713 50.3494C102.288 30.8819 89.757 14.4902 72.4679 7.55517C71.5527 7.18678 70.5164 7.63386 70.1532 8.54947C70.057 8.79269 70.0178 9.04303 70.0249 9.28624ZM7.83744 50.6141C9.60019 26.5649 29.61 7.57662 54 7.57662C54.9829 7.57662 55.7806 6.77546 55.7806 5.78831C55.7806 4.80116 54.9829 4 54 4C27.7333 4 6.18161 24.4511 4.2871 50.3494C4.21588 51.3366 4.95305 52.1914 5.93235 52.2665C6.91165 52.338 7.76622 51.5977 7.83744 50.6141Z" fill="#5E5E5F"/>
</g>
<defs>
<filter id="filter0_f_10_21" x="0.282349" y="0" width="107.435" height="108" filterUnits="userSpaceOnUse" color-interpolation-filters="sRGB">
<feFlood flood-opacity="0" result="BackgroundImageFix"/>
<feBlend mode="normal" in="SourceGraphic" in2="BackgroundImageFix" result="shape"/>
<feGaussianBlur stdDeviation="2" result="effect1_foregroundBlur_10_21"/>
</filter>
<linearGradient id="paint0_linear_10_21" x1="54" y1="4" x2="54" y2="104" gradientUnits="userSpaceOnUse">
<stop stop-color="#932FD6"/>
<stop offset="1" stop-color="#0A2779"/>
</linearGradient>
<linearGradient id="paint1_linear_10_21" x1="54" y1="4" x2="54" y2="104" gradientUnits="userSpaceOnUse">
<stop stop-color="#932FD6"/>
<stop offset="1" stop-color="#0A2779"/>
</linearGradient>
</defs>
</svg>
