<svg width="100" height="100" viewBox="0 0 100 100" fill="none" xmlns="http://www.w3.org/2000/svg">
<rect x="2" y="2" width="96" height="96" rx="14" stroke="#E29B54" stroke-width="4"/>
<path d="M22.5 39C31.0604 39 38 32.0604 38 23.5C38 14.9396 31.0604 8 22.5 8C13.9396 8 7 14.9396 7 23.5C7 32.0604 13.9396 39 22.5 39Z" stroke="#E29B54" stroke-width="4" stroke-linecap="round" stroke-linejoin="round"/>
<path d="M79.5 70C88.0604 70 95 63.0604 95 54.5C95 45.9396 88.0604 39 79.5 39C70.9396 39 64 45.9396 64 54.5C64 63.0604 70.9396 70 79.5 70Z" stroke="#E29B54" stroke-width="4" stroke-linecap="round" stroke-linejoin="round"/>
<path d="M60.5 39C69.0604 39 76 32.0604 76 23.5C76 14.9396 69.0604 8 60.5 8C51.9396 8 45 14.9396 45 23.5C45 32.0604 51.9396 39 60.5 39Z" stroke="#E29B54" stroke-width="4" stroke-linecap="round" stroke-linejoin="round"/>
<path d="M53.5 96C62.0604 96 69 89.0604 69 80.5C69 71.9396 62.0604 65 53.5 65C44.9396 65 38 71.9396 38 80.5C38 89.0604 44.9396 96 53.5 96Z" stroke="#E29B54" stroke-width="4" stroke-linecap="round" stroke-linejoin="round"/>
<path d="M22.5 75C31.0604 75 38 68.0604 38 59.5C38 50.9396 31.0604 44 22.5 44C13.9396 44 7 50.9396 7 59.5C7 68.0604 13.9396 75 22.5 75Z" stroke="#E29B54" stroke-width="4" stroke-linecap="round" stroke-linejoin="round"/>
</svg>
