<?xml version="1.0" encoding="utf-8"?>
<!-- Generator: Adobe Illustrator 26.5.0, SVG Export Plug-In . SVG Version: 6.00 Build 0)  -->
<svg version="1.1" id="Layer_1" xmlns="http://www.w3.org/2000/svg" xmlns:xlink="http://www.w3.org/1999/xlink" x="0px" y="0px"
	 viewBox="0 0 512 512" style="enable-background:new 0 0 512 512;" xml:space="preserve">
<style type="text/css">
	.st0{fill:#FFFFFF;}
	.st1{fill:#162952;}
</style>
<g id="XMLID_1_">
	<path id="XMLID_3_" class="st0" d="M457,147.72c37.87,34.65,63.12,78.83,52.6,131.43c-14.31,78.97-98.89,129.33-170.28,144.33
		c-59.61,14.59-129.47,9.96-186.55-6.03C95.4,399.36,30.45,361.35,6.61,300.05c-19.08-57.09,4.91-114.46,49.51-152.33
		C117.98,95.82,194,75.91,278.44,80.26C344.79,86.15,405.94,104.66,457,147.72"/>
	<path id="XMLID_4_" class="st1" d="M443.54,146.32c31.84,25.53,54,57.93,59.61,95.94c6.73,58.63-30.02,108.29-78.41,138.3
		c-64.94,39.41-147.42,52.6-228.07,38.57c-51.34-8.84-107.86-43.2-123.85-96.78c-16.13-46.99-4.35-100.29,30.16-134.94
		c21.6-23.56,47.41-41.24,73.36-55.55h-3.09c-44.18,10.1-85.42,28.33-117.82,65.5c-30.16,33.8-33.1,90.61-15.29,131.01
		c3.65,9.26,9.54,17.53,14.59,26.09C18.81,322.49-1.95,277.05,11.66,228.8C30.59,157.54,106.34,114.34,171,97.37
		C265.68,74.36,369.05,90.92,443.54,146.32"/>
	<path id="XMLID_5_" class="st0" d="M260.21,131.73c34.51,6.17,67.19,16.83,99.17,29.32c10.38,5.05,15.01,17.25,23.85,25.53
		c26.51,21.6,59.19,31.98,81.07,61.02c7.85,14.17-0.14,28.61-8.42,40.12c-16.13,14.17-35.07,21.46-53.02,31.28
		c-17.67,8.28-35.35,16.41-53.44,23.42c-1.4,0.7,0.28,1.4,1.26,2.24l1.12,0.84c25.53-8.7,51.06-17.39,76.02-27.49
		c-2.52,8.84-7.29,17.81-11.36,26.51c-5.75,8.98-10.38,27.91-39.84,24.27l-72.8-11.36c-34.93,8.7-68.73,21.6-107.3,19.22
		c-13.89-1.26-26.79-8-34.79-20.48c-5.05-9.26-8.28-19.78-7.29-31.42c1.82,1.4,3.23,3.93,4.77,5.89
		c34.37,39.27,95.24,31.98,141.53,22.86c31.84-10.52,62.56-23.14,91.87-39.56c11.36-7.85,18.8-19.36,17.53-33.38
		c-2.38-28.75-33.94-45.87-56.39-56.39c-18.09-6.31-36.89-11.78-57.37-11.08l45.31-20.48c3.23-0.84,4.63,2.24,5.89,4.35
		c1.68,4.49,2.1,10.24-0.84,14.31c8.42,1.96,13.18,3.23,19.92,4.77c25.53,8.84,52.18,21.46,68.17,46.43
		c4.35,8,5.33,18.37,2.67,27.49l0.56,0.84c12.76-4.35,17.39-15.43,21.04-28.61c-0.28-15.15-16.13-23.99-26.37-32.96
		c-16.55-12.34-34.08-22.02-51.2-33.1c-10.66-6.31-14.45-20.2-25.81-24.83c-20.62-6.59-45.17-2.67-67.19-1.68
		c-38.29,4.07-73.92,14.45-104.92,36.33c3.51-27.77,9.82-54.98,19.22-80.37c4.49-10.38,9.68-23.42,21.74-27.49
		C242.67,98.63,250.25,119.67,260.21,131.73"/>
	<path id="XMLID_6_" class="st1" d="M246.46,127.52c0.84,1.68,2.52,2.95,2.38,5.05c-21.46,8.84-39.27,31.7-50.64,50.92h-0.56
		c3.09-22.72,8.98-44.32,18.8-64.38c2.81-3.79,4.49-8.98,9.4-10.8C236.36,109.01,240.15,120.79,246.46,127.52"/>
	<path id="XMLID_11_" class="st1" d="M471.17,386.6c0.84,0,1.68,0,2.67-0.28c1.68-0.56,2.38-1.68,2.24-3.09
		c-0.14-1.96-1.54-2.52-2.24-2.52h-1.96c-0.42,0-0.7,0.14-0.7,0.84 M471.17,392.35c0,0.84,0.98,1.12,1.82,1.12v0.7h-6.03v-0.7
		c0.84,0,1.82-0.28,1.82-0.98v-10.8c0-1.12-0.14-1.12-1.68-1.12v-0.7h6.31c0.98,0,2.1,0,2.95,0.42c0.56,0.14,1.54,0.7,1.96,1.54
		c0.98,1.68,0.14,3.65-0.7,4.35c-0.42,0.42-1.4,0.98-2.67,1.12l4.49,5.75c0.42,0.56,0.84,0.56,1.4,0.56v0.7h-3.65l-5.05-6.73h-0.98
		L471.17,392.35L471.17,392.35z M472.99,376.08c-6.31,0-11.5,5.19-11.5,11.5s5.19,11.5,11.5,11.5c6.31,0,11.5-5.05,11.5-11.5
		C484.63,381.27,479.44,376.08,472.99,376.08z M473.13,400.62c-7.15,0-13.04-5.75-13.04-13.04c0-7.15,5.89-13.04,13.04-13.04
		c7.15,0,13.04,5.89,13.04,13.04C486.04,394.87,480.29,400.62,473.13,400.62z"/>
</g>
</svg>
